<svg xmlns="http://www.w3.org/2000/svg" viewBox="0 0 493.12 492.69"><defs><style>.cls-1{fill:#2775b8;}.cls-2{fill:#1a568d;}.cls-3{fill:#010102;}.cls-4{fill:#fefefe;}.cls-5{fill:#0e9fe0;}.cls-6{fill:#4dd0f3;}.cls-7{fill:#bdc2c5;}.cls-8{fill:#10a0e0;}.cls-9{fill:#0fa0e0;}.cls-10{fill:#4b5e75;}.cls-11{fill:#1a568e;}.cls-12{fill:#fcfcfc;}.cls-13{fill:#0978a8;}.cls-14{fill:#7aa9d3;}.cls-15{fill:#7b7f84;}.cls-16{fill:#8dd2f0;}.cls-17{fill:#a0d9f3;}.cls-18{fill:#0a3774;}.cls-19{fill:#1ea6e2;}.cls-20{fill:#7cabd4;}.cls-21{fill:#78a8d2;}.cls-22{fill:#49ccf1;}.cls-23{fill:#d0ecf8;}.cls-24{fill:#a3e3f7;}.cls-25{fill:#215586;}.cls-26{fill:#0c4084;}.cls-27{fill:#a2e2f6;}.cls-28{fill:#edf7fc;}.cls-29{fill:#a1e1f5;}.cls-30{fill:#689ecd;}.cls-31{fill:#2774b8;}.cls-32{fill:#6ea2cf;}.cls-33{fill:#093c82;}.cls-34{fill:#71a4d0;}.cls-35{fill:#6ba0ce;}.cls-36{fill:#40a4d1;}.cls-37{fill:#72a4d0;}.cls-38{fill:#71a2ce;}.cls-39{fill:#008ede;}.cls-40{fill:#73a4d0;}.cls-41{fill:#0088d4;}.cls-42{fill:#008fe0;}.cls-43{fill:#0087d3;}.cls-44{fill:#0082cc;}.cls-45{fill:#050505;}.cls-46{fill:#33485c;}.cls-47{fill:#efc310;}.cls-48{fill:#54d1f3;}.cls-49{fill:#4bcff2;}.cls-50{fill:#7acaed;}.cls-51{fill:#fbfdfe;}.cls-52{fill:#66c2eb;}.cls-53{fill:#b3e0f4;}.cls-54{fill:#cfecf8;}.cls-55{fill:#c0e6f6;}.cls-56{fill:#4cd0f3;}.cls-57{fill:#8ed2f0;}.cls-58{fill:#4fd1f3;}.cls-59{fill:#d9f3fb;}.cls-60{fill:#4ccff3;}.cls-61{fill:#b2e7f8;}.cls-62{fill:#c0ebf9;}.cls-63{fill:#0876a7;}.cls-64{fill:#fdfefe;}.cls-65{fill:#f5fbfd;}.cls-66{fill:#9fe1f6;}.cls-67{fill:#74d7f4;}.cls-68{fill:#347cbb;}.cls-69{fill:#0673a4;}.cls-70{fill:#0471a2;}.cls-71{fill:#f6fbfd;}.cls-72{fill:#000102;}.cls-73{fill:#0c7cad;}.cls-74{fill:#0471a1;}.cls-75{fill:#a4e3f7;}.cls-76{fill:#95dff6;}.cls-77{fill:#77d8f4;}.cls-78{fill:#96dff6;}.cls-79{fill:#f9fcfe;}.cls-80{fill:#d2ecf8;}.cls-81{fill:#e1f2fa;}.cls-82{fill:#f4fbfd;}.cls-83{fill:#e8f6fc;}.cls-84{fill:#edf8fc;}.cls-85{fill:#e5f6fc;}.cls-86{fill:#f0f9fd;}.cls-87{fill:#e6f7fc;}.cls-88{fill:#eff8fc;}.cls-89{fill:#f7fcfd;}</style></defs><g id="Layer_2" data-name="Layer 2"><g id="Template_vecteezy_responsive-icon-style_8330441.jpg" data-name="Template vecteezy_responsive-icon-style_8330441.jpg"><path class="cls-1" d="M6.19,191A239.5,239.5,0,0,1,60.06,85c38.4-44,86.36-72.15,144-81.33,87.82-14,163.08,11.81,224.3,76.48,29.26,30.92,48.09,67.85,58.05,109.26.19.79.28,1.61.42,2.42-.66,2.77-3,2-4.7,2-11.1.12-22.21.06-33.32.06H415.5c-7.1,0-7.62-.6-7.22-7.89,2.74-4,6.54-4,8.79.11,1,1.8,1.93,2.93,4.15,2s2-2.35,1.28-4c-1.14-2.72-.34-4.7,2.1-6.31s4.11-.47,5.75,1.21c1.26,1.29,2.53,2.11,4.22.55,1.85-1.7,1.1-3.07-.32-4.51-2-2-2.46-4.18-.78-6.65s3.87-2.15,6.19-1.19c1.76.73,3.23.63,4-1.38s-.31-3.12-2-3.79c-2.6-1-4.11-2.7-3.44-5.68s2.84-3.43,5.35-3.35c2.14.07,3.37-.65,3.36-3s-1.12-3.23-3.3-3.15c-2.78.11-4.81-.75-5.38-3.83s1.38-4.21,3.66-5.11c1.72-.67,2.9-1.39,2-3.61s-2.26-2.39-4.22-1.55c-2.21,1-4.3,1.69-6.1-1s-1.8-5,.77-7.19c1.49-1.27,1.77-2.67.2-4.2s-2.94-.89-4.21.45c-1.76,1.85-3.56,2.91-6.08,1.1-2.25-1.63-2.85-3.5-1.72-6,.73-1.63.88-3.21-1.13-4.17-2.24-1.07-3.29.17-4.09,2-1.1,2.5-2.88,3.33-5.64,2.79s-3.53-2.22-3.5-4.69c0-1.9-.17-3.64-2.76-3.62-2.33,0-2.64,1.57-2.62,3.35,0,2.67-1.39,4-3.87,4.49s-4.59-.21-5.65-2.81c-.61-1.48-1.26-2.78-3.32-2s-2.83,2-1.93,4.13a3.28,3.28,0,0,1-.17,3.52,3.93,3.93,0,0,1-1.72.69,26,26,0,0,1-5,0,5.62,5.62,0,0,1-1.15-.25c-1.59-1.18-3.14-.64-4.69.15a7.47,7.47,0,0,1-1.32.24c-4.38-.29-8.94,1.35-13.07-1.32-1.37-4.15-.46-8.44-.67-12.65s-.82-4.8-4.82-4.92c-1.1,0-2.2,0-3.29,0q-140.59,0-281.17,0c-2.18,0-4.4-.38-6.5.54-1.68,1.56-1.06,3.61-1.06,5.45q-.06,38.28,0,76.55a23.09,23.09,0,0,1-.36,6.15c-1.47,3.29-4.11,4.44-7.6,4.43-14.93,0-29.86,0-44.79-.09C8.9,193.81,5.85,194.89,6.19,191Z"/><path class="cls-1" d="M454.56,378.15A226.79,226.79,0,0,1,413.05,428c-36.91,33.65-80,54.94-129.46,61.93-75.13,10.62-141.91-8.95-199.72-58.33a219.4,219.4,0,0,1-31.63-33.48c.37-2.37,2.32-2,3.84-2.05q36.32-.13,72.63,0a6.88,6.88,0,0,1,3.92.94,6.59,6.59,0,0,0,4.12,1.63c2.72,0,3.83,1.53,4.28,4,.42,2.34,0,4.05-2.37,5-1.83.7-2.53,1.93-1.72,3.9s2.3,2.06,4,1.39c2.33-.9,3.94,0,5.22,2s1.76,3.74,0,5.62c-1.52,1.65-1.89,3.25-.07,5s3.21.58,4.52-.73c1.6-1.58,3.25-1.84,5.15-.5s3.09,2.75,2.24,5.17c-.6,1.73-1.29,3.45,1.11,4.5s3.43-.53,4.4-2.34c1.24-2.31,3.3-2.66,5.66-2.13s3.62,1.83,3.66,4.28c0,1.94.38,3.61,2.93,3.51,2.38-.1,2.43-1.81,2.48-3.5.08-2.5,1.07-4.13,3.73-4.64s4.25.29,5.2,2.76c.72,1.87,1.87,3,4.11,2.14,2.52-1,1.66-2.79,1-4.45-1.11-2.69.08-4.36,2.17-5.94,2.32-1.77,4-.94,5.74.81,1.33,1.37,2.68,2.48,4.5.58s.71-3.24-.67-4.53c-2-1.9-2.19-3.83-.69-6.21s3.4-2.35,5.67-1.41c1.68.69,3.42,1.41,4.54-.94s-.22-3.5-2.22-4.34c-2.26-.95-3.52-2.53-3.05-5.17.51-2.8,2.24-3.88,5-3.83,1.85,0,3.71-.05,3.66-2.7-.06-2.29-1.6-2.68-3.39-2.62-3.12.1-4.89-1.27-5.37-4.41-.44-2.93,1.19-4.25,3.61-5.17,1.36-.51,3.11-.85,2.29-3.08-.64-1.72-1.56-2.88-3.66-2.43-1.05.23-2.29.57-2.75-.91a2.34,2.34,0,0,1,1.63-3.26,27.7,27.7,0,0,1,7-.41H327.91c1.24,0,2.48-.06,3.71,0,2.95.15,4.69-.8,4.64-4.15-.05-3.83-.52-4.49-4.39-4.78-5.65-.42-6-.76-6.17-6.35-.05-1.51.12-3.05-1.12-4.23-1.7-1.27-3.68-.94-5.56-.94-11.79,0-23.58,0-35.36,0-2.05,0-4.13.2-6.05-.8-3.55-5-4-14.21-.9-18.3,1.94-1,4-.65,6.07-.65q35.39,0,70.76,0c7,0,7.13-.2,6.75-7.17a23.55,23.55,0,0,0-.54-3.24c.42-2.05,2.18-1.87,3.59-2q18.06-1.23,36.07-3.1c1.51-.16,3-.21,4.32.83,1.28,1.81,1,3.91,1,5.93,0,11.32,0,22.65,0,34,0,6.09.32,6.36,6.41,6.79a7.22,7.22,0,0,1,3.91,1c1.18,1.35,1.08,3,1.19,4.66.32,5.14.93,5.8,6.18,5.86,8.74.1,17.49,0,26.23.06C450.73,376.94,452.86,376.58,454.56,378.15Z"/><path d="M277.45,351.72c14.81.06,29.61.09,44.42.2,1.42,0,3-.64,4.25.71.62,1.87.27,3.81.29,5.71,0,6.05-.15,6.32-6.08,6.33q-68.33.06-136.65,0c-.55,0-1.1-.06-1.65-.11a80,80,0,0,1-8.62,0c-2.27-.15-4-1-4.25-3.55-.07-.68-.18-1.35-.2-2-.19-7.08,1-8.45,8.09-8.46,9.53,0,19.07-.12,28.6.06.72.05,1.45.07,2.17.08,4.35,0,8.71,0,13.07.05a6.21,6.21,0,0,0,6.36-4.11,52.61,52.61,0,0,0,3.62-11.67l.06-1.35c0-.46,0-.92,0-1.38,0-1.91,0-3.82,0-5.72-.45-9.64-.45-9.57-10.26-9.66-15-.13-29.87-1.35-44.8-2.22-12.6-.74-25.17-1.81-37.77-2.66-6-.39-6.06-.15-6.06,5.7,0,12.77,0,25.54,0,38.31,0,9-4.38,13.55-13.34,13.59-27,.12-54.11.05-81.16,0-1.92,0-3.88.07-5.43-1.4-2.53-4.22-5.22-8.35-6.82-13.05,2-1.79,4.38-1.3,6.65-1.3,25.6,0,51.2,0,76.79-.07,2.26,0,5.22.88,5.93-2.74.26-3.34-.84-6.85,1.21-10l.19-11.4a22.44,22.44,0,0,0,2-9.59c0-6-.1-12.08,0-18.12a24,24,0,0,0-1.93-10.42l-.27-7.29c-1.67-2.12-1-4.63-1.21-7-.24-3.32.56-6.71-.62-10-2-1.19-4.29-.63-6.42-.63q-50-.08-99.94-.06c-2.4,0-5,.54-7-1.46.09-3.53-1.15-7-.28-10.56A7,7,0,0,1,5,253.24c18.9,0,37.8-.17,56.7.09.77,0,1.55,0,2.32,0,8.9-.15,17.81,0,26.72-.08,4.56,0,5-.38,4.89-4.94-.08-3.29.87-6.52.36-9.81-.65-14.34-.38-28.69-.17-43A11.23,11.23,0,0,1,96,194c-.66-15.19-.55-30.39-.17-45.58a9.64,9.64,0,0,0,0-3.67c-.49-7.22-.3-14.44-.17-21.66.08-4.3,1.43-5.56,5.74-5.72,3.12-.12,6.27-.38,9.36.35,1.13.71,2.23.17,3.33-.16,15.78-.32,31.55-.71,47.31.22a9.94,9.94,0,0,0,2.44-.19c15.54-.42,31.07-.71,46.6.12,1.14.81,2.23.19,3.34-.15,15.38-.35,30.76-.69,46.13.16,1.14.75,2.24.17,3.35-.16,15.37-.34,30.74-.71,46.09.18,1.11.94,2.16.18,3.23-.14,15.82-.32,31.64-.84,47.45.28a4.74,4.74,0,0,1,1.33.76,91.08,91.08,0,0,0,13.82,0c1.82,0,3.64,0,5.47,0h5.25c2.9.77,6.08-1.75,8.84.74,1.64,3.51.72,7.22.87,10.85.21,2.88.09,5.76.09,8.64q0,80.28,0,160.56c0,8.6-.35,9.08-8.83,9.81-22.68,1.95-45.35,3.89-68.08,5.26-15.6.94-31.18,2.05-46.81,2.4-4.59.1-5,.73-5.82,7.48a44.59,44.59,0,0,0,2.29,19.43C270,348.33,273,350.77,277.45,351.72Z"/><path class="cls-1" d="M62.34,254.44l-62,.11a226.23,226.23,0,0,1,5.27-60.9c1.09-.88,2.38-.47,3.56-.47,15.74,0,31.47,0,47.2-.08,3.11,0,5.33.8,6.6,3.7.82,2.54.49,5.17.5,7.76,0,11.92,0,23.84,0,35.77,0,3.28,0,6.57,0,9.85C63.41,251.68,63.5,253.23,62.34,254.44Z"/><path class="cls-1" d="M487.5,194.42a216.85,216.85,0,0,1,5.07,53.52,2.05,2.05,0,0,1-2.73.13c-2-2.69.25-6.35-2.08-8.95-1.92-1.88-4.37-1.36-6.63-1.36-22.87,0-45.73,0-68.59,0-2.3,0-4.69.36-6.77-1.1-1.08-1.41-1-3.08-1.1-4.73-.06-2.06-.08-4.12,0-6.18.59-17.72-1.14-35.4-.79-53.11,0-2.17-.78-4.77,1.89-6.21,1.84,1.54,1.41,3.7,1.5,5.68.29,6.37-.45,12.75.27,19.11,1.13,2.42,3.34,2,5.35,2q35.12,0,70.21,0C484.62,193.19,486.46,192.49,487.5,194.42Z"/><path class="cls-2" d="M32,368.16q43.87,0,87.76,0c7,0,10.9-4,10.91-11,0-14.42.1-28.84-.07-43.26,0-3.12.66-3.72,3.84-3.5C158,312,181.51,314,205.09,315c7,.29,14,.8,21,.59,4.27-.13,5.67,1.67,5.88,5.34.12,2.05.12,4.11.17,6.16-2.79,2-6,1.34-9,1.06-3.22-.31-6.43-.61-9.66-.68-.75,0-1.51,0-2.26,0-10.9-.55-21.81-1.14-32.69-2-5-.41-10.12-.18-15.09-1.25-.47,0-.94,0-1.41,0-4.92.23-9.74-.86-14.65-1-3.18-.09-4.17,1-4,3.93a52,52,0,0,1,0,5.72c0,.73,0,1.45,0,2.18.12,11.31.15,22.62,0,33.93a12.64,12.64,0,0,1-2.57,7.6,11.51,11.51,0,0,1-5.83,3.74c-2.34,1-4.82.9-7.28.9q-40.84,0-81.7,0c-2.32,0-4.69.17-6.7-1.37C36.35,376.24,34.24,372.17,32,368.16Z"/><path class="cls-3" d="M406,236.36q39,0,78,.1c2.08,0,4.59-.68,5.34,2.4,1.31,16.74,1.95,33.48-.08,50.22-1,9.23-3.67,18.11-6,27.06-2.65-1-1.87-3.34-1.86-5.2.07-19.36,0-38.72,0-58.09,0-6.19,0-6.2-6.06-6.2q-28.42,0-56.86,0c-5.59,0-5.4,0-5.66,5.39-1.55,31.69-.48,63.4-.78,95.1-.05,4.68-.74,5.78,5,6.32,2.05.19,4.08.47,6.14.47,13,0,26.09,0,39.13,0,1.87,0,3.9-.43,5.45,1.19a68.08,68.08,0,0,1-6.29,11.56c-3.3,1.86-6.95,1.14-10.43,1.21-10.21.19-20.44.09-30.66.05-1.9,0-3.85.08-5.43-1.29-.82-.06-1.63-.19-2.45-.17-10.32.19-9.1-.19-9.13-9.54q0-19-.11-38.08c-1.09-1.39-1.15-3.05-1.15-4.71,0-23.88-.08-47.77.05-71.65C402.25,239.9,402,236.75,406,236.36Z"/><path class="cls-4" d="M471.86,346.72c-.84,2.36-2.93,4.11-3.24,6.73-1.43,1.14-3.14.81-4.76.81-14.14,0-28.28,0-42.41,0-1.8,0-3.59-.55-5.32-.37-3.5.36-4.45-1.06-4.44-4.43.1-25.53.05-51.06.07-76.59,0-1.22-.16-2.49.56-3.61,1.48-1.28,3.3-1.22,5.07-1.22,19.87,0,39.73-.17,59.59.17a6.7,6.7,0,0,1,4,.8c1.16,1.26.83,2.84.83,4.31,0,14.55.08,29.1-.33,43.64-.07,2.57-1.5,5-.46,7.66-1.71,3.49-2.12,7.54-4.65,10.67-1.95-1.33-1.47-3.4-1.47-5.25,0-15.61-.15-31.23-.17-46.85a25.46,25.46,0,0,0-.26-5.31c-.47-1.47-1.63-1.64-2.95-1.64-4.33,0-8.51-.4-12.26,3.07-3.21,3-7.33,1.92-10.68-.46-3.12-2.22-6.88-4.23-9.72-1.64s-1,6.6,1,9.76,2.71,6.58.57,9.71c-2.69,3.92-2.92,8.12-2.79,12.56a35.94,35.94,0,0,1-.24,7.4,3,3,0,0,1-1.83,2.11c-5.79,1.13-11.69-.15-17.48.75a2.29,2.29,0,0,0-.94,1.74c-.05,7.64-.27,15.27.08,22.9a1.76,1.76,0,0,0,.64,1,3.4,3.4,0,0,0,1.36.33c15.47.05,30.93,0,46.38,0C467.71,345.57,470,345.17,471.86,346.72Z"/><path class="cls-1" d="M39.31,379.78q45.42,0,90.83,0a49.84,49.84,0,0,0,5.66-.66c1,1.26.77,3.25,2.53,4,2.52,1.07,3.28,2.86,2.71,5.55s-1.81,4.45-4.74,4.65a3.68,3.68,0,0,0-2.51,1.19,3.93,3.93,0,0,1-3.6,2.24q-39.1,0-78.22,0a2.25,2.25,0,0,1-1.1-.49A134.13,134.13,0,0,1,39.31,379.78Z"/><path class="cls-5" d="M475.82,276.05q.1,27,.22,53.94c0,1.78.2,3.56.3,5.33-.59,1,.13,2.51-1.11,3.33a2.55,2.55,0,0,1-1.5.38c-14.82-.18-29.63,0-44.45-.09-1.9,0-3.86.28-5.67-.65a1.62,1.62,0,0,1-.52-2.12,2.24,2.24,0,0,1,1.46-.53c16,.29,32-.07,41,.08-8.59,0-24.2,0-39.8,0-1,0-1.27-.73-1.28-1.6a2.19,2.19,0,0,1,1.48-1.69,13.89,13.89,0,0,1,1.58,0c15.22,0,30.45,0,45.67-.28.52-.43-.38-.69,0-.27.18.21.12.36-.17.37-15.18.33-30.37.09-45.55.13-1.68-.66-.84-1.52-.19-2.36a3.23,3.23,0,0,1,1.43-.5c13,0,26,0,39.07,0a10.2,10.2,0,0,0,3.65-.29c-13.28.64-26.57.17-39.85.22-1.54,0-4-.06-1.53-2.66,14.21-.3,28.42-.05,40.12-.15-11.33-.1-25.18.09-39-.08-1.34-1.08-.17-1.68.46-2.39,4.89-.91,9.82-.31,14.73-.39,8-.12,16,0,22-.05-10.47-.21-22.92.46-35.36-.32-1.24-.94-.64-1.71.22-2.47a2.5,2.5,0,0,1,1.53-.11c12.79.1,25.58,0,38.37-.14.52-.36-.13-1,.11-.54.1.2,0,.35-.18.37-12.53.75-25.08.16-37.62.31-2.07-1.08-.79-2,.18-2.86l1-1.6c.71-2.56,2-4.34,5.05-3.73,10.22,0,20.44-.05,30.65,0-10.41,0-20.83,0-31.24-.05-2.4-.45-1.31-1.47-.41-2.46,9.14-.94,18.31,0,25.64-.4-5.42,0-12.67,0-19.92,0-1.34,0-2.75.26-4-.57-.73-1.25.08-1.8,1-2.29,9.91,0,19.82,0,26.89,0-6.78-.24-16.4.15-26-.1-1.14-1.2-.11-1.73.72-2.31,9.42-.16,18.84,0,27-.08-7.92,0-17.05,0-26.19-.06-1-2.6,1-2.75,2.51-2.75,7.08,0,14.16-.41,21.15.2-7.06-.75-14.08.2-21-.53-2.31-3.29.81-4.64,2.33-6.56,3.51-.18,3.88-2.59,3.74-5.35,1.58-4.73,4.86-8.42,7.6-12.42a2.84,2.84,0,0,1,2.43-1.31C468.32,275.8,472.11,275,475.82,276.05Z"/><path class="cls-6" d="M.59,265.11q55.48,0,111,.1c1.41,0,3.27-1,4.32,1a9,9,0,0,1-3.52,3.31c-7,4-13.9,8.13-20.79,12.3a12.42,12.42,0,0,1-7,2q-38.94,0-77.88,0c-1.48,0-3,.38-4.44-.38-.25-1.59,0-3.28-.76-4.78,1.1-1.31,2.62-1.38,4.14-1.38q36.66,0,73.32,0c.54.09-.12.6.07.09,0-.09-.1-.14-.37-.14-23.76-.05-47.52,0-71.28,0-2,0-4.17.45-5.9-1.13C1,272.42,0,268.83.59,265.11Z"/><path class="cls-7" d="M88.67,312.23c0-7.13.08-14.27,0-21.4,0-2.46.7-3.41,3.27-3.34,5.48.16,11,.14,16.46,0,2.41-.06,3.41.62,3.39,3.22-.1,14.54-.08,29.09,0,43.63,0,2.43-.87,3.48-3.37,3.44-5.49-.1-11-.14-16.46,0-2.58.07-3.31-.9-3.27-3.35C88.75,327.05,88.67,319.64,88.67,312.23Z"/><path class="cls-6" d="M28.55,286.72c16.71,0,33.41.09,50.11-.07,3.16,0,4.3.61,4.26,4-.19,14.24-.07,28.48-.11,42.72,0,1.14.57,2.51-.8,3.36-1.56-1.72-1.16-3.86-1.17-5.87,0-12.44,0-24.88,0-37.32,0-2.62-.39-4.58-3.68-2.85-4.6,1.06-9.27.47-13.9.53-8.34.11-16.67,0-25,.4,3.76.47,7.54.31,11.32.43,6.41.2,12.85-.59,19.24.47,1.84.94.93,1.9-.08,2.68a26.53,26.53,0,0,1-6.6,3.78,5.52,5.52,0,0,1-1.34.29c-6.91-.5-13.84,0-20.7-.32,6,.57,12.07-.62,18,.7a1.09,1.09,0,0,1,.15,1.23,3.25,3.25,0,0,1-1.15.67c-5.74,0-11.49,0-17.18-.1,4.73.5,9.48-.66,14.12.71a1.11,1.11,0,0,1,.07,1.21A3.14,3.14,0,0,1,53,304c-4.5.1-9-.06-13.43-.07,3.48.44,7-.65,10.36.7a1.11,1.11,0,0,1,.06,1.19,3.17,3.17,0,0,1-1.06.63c-3.26.22-6.52-.08-9.73-.05,2.23.41,4.57-.59,6.66.73a1.29,1.29,0,0,1,0,1.15,3.11,3.11,0,0,1-1,.61c-2.07.51-4.13-.08-6.15-.08,1,.34,2.09-.07,2.92.68a1.23,1.23,0,0,1,.25,1.06,2.33,2.33,0,0,1-.88.68,9.76,9.76,0,0,1-3.14.26c-.83,0-.2.47-.09.76a1.37,1.37,0,0,1-.1,1c-1,.82-2.33,1-3.15,2a36.67,36.67,0,0,1-5.75,3.51,7.21,7.21,0,0,1-2.06.33c-3.92.08-7.84.05-11.76,0-1.62,0-3.27.07-4.6-1.13-3.64-9.31-5.19-19.16-7.23-28.87C2.25,285,6,287.39,7.58,286.83A7,7,0,0,1,9.47,288c6.64,5.06,9.65,5.08,16.62.07C26.83,287.48,27.81,287.31,28.55,286.72Z"/><path class="cls-8" d="M62.38,298.09l7.31-4.82c2.11-1.91,5.82-.21,7.41-3.28.89-1.57,2.42-2.72,4-2.2,1.78.59.9,2.65.9,4,0,15,0,29.94,0,44.91q-31.52.11-63,.23c-1.83,0-2.9-.53-3-2.47,1.41-1.26,3.14-.79,4.74-.79,16.47,0,33,0,49.42,0q-24.86,0-49.7,0c-1.74,0-3.6.43-5.17-.79v0c.68-2.65,2.87-1.58,4.39-1.58,16.86-.09,33.71-.05,50.57-.06q-25.74,0-51.47,0c-1.49,0-3,.24-4.39-.67l-.68-.9c1.52-1.36,3.39-.86,5.12-.87q25.71,0,51.4,0-25.92,0-51.84,0c-1.62,0-3.31.32-4.78-.72l0-.07c.67-2.65,2.86-1.6,4.4-1.61,17.69-.08,35.37-.05,53.06-.05-17,0-34.08,0-51.11-.05-1.64,0-3.67.81-4.77-1.33a3,3,0,0,1,2.64-1.35c18,.62,35.93,0,53.9.31-17-.34-34,.39-51-.38a1.09,1.09,0,0,1-.62-1.26,3,3,0,0,1,2-1.06c16.31.42,32.62,0,45.38.17H28.88A11.72,11.72,0,0,1,24.8,321a1.1,1.1,0,0,1-.59-1.26,2.66,2.66,0,0,1,2-.84c14.79-.1,29.58,0,44.36-.05-12.32,0-24.65,0-37,0-1.45,0-3,.42-4.27-.84,1.09-2,3.37-2.21,5-3.4,1.49-1,3.19-.65,4.81-.66,10.51,0,21,0,31.55,0-9.48,0-18.95,0-28.42,0-1.59,0-3.33.52-4.7-.85a2.22,2.22,0,0,1,0-.68,2.16,2.16,0,0,1,1.19-.77c10.77-.33,21.55,0,30.66-.14-6.72,0-15.1,0-23.49,0-1.45,0-3,.44-4.25-.87a2.51,2.51,0,0,1,0-.67c1.33-1.43,3.07-.87,4.65-.88,8.6-.07,17.21,0,25.82-.07-7.92.09-15.85,0-23.77,0a2.9,2.9,0,0,1-2.6-.9,2.22,2.22,0,0,1,0-.63c1.18-1.38,2.8-.89,4.24-.9,7.41-.06,14.82,0,22.22-.06-6.72.09-13.45,0-20.17,0a2.46,2.46,0,0,1-2.19-.89,4.53,4.53,0,0,1,0-.64c1.19-1.36,2.8-.86,4.24-.88,6.43-.1,12.86.08,19.28-.12-5.6.19-11.21.06-16.82.07-1,0-1.94,0-2.58-.92,0-.2,0-.41,0-.61,1.75-1.65,3.91-.81,5.87-.88,4.23-.13,8.46,0,11.71,0-2.57,0-6.11.05-9.66,0-1.31,0-2.78.4-3.8-.93,0-.2,0-.4,0-.59,2.88-1.86,6.07-.58,9.11-.9a37.13,37.13,0,0,1,4.32,0C69,298.46,65.51,300.12,62.38,298.09Z"/><path class="cls-9" d="M115.8,341a36.21,36.21,0,0,1,0,9.81c-1.51,1.55-3.48,1.45-5.39,1.45q-41.26,0-82.55,0a11.08,11.08,0,0,1-4.42-.73c-2.16-3.12-3.38-6.66-4.88-10.55Z"/><path class="cls-10" d="M412.9,269.33c-.14,26.9-.25,53.81-.51,80.72,0,2.85,1,3.35,3.52,3.34,17.57-.06,35.14,0,52.71.06.06.71.12,1.43-.78,1.7q-22.45-.12-44.89-.26a59.89,59.89,0,0,1-6.14-.4c-5.69-.64-5.69-.67-5.69-6.28q0-39.34,0-78.69c0-6.86.45-13.71.42-20.56,0-2.74.89-3.5,3.55-3.49q31.93.15,63.86,0c2.94,0,3.67.89,3.66,3.73-.12,20.74-.09,41.47-.05,62.21,0,1.58-.59,3.31.72,4.72-.19,3-2.41,5.44-2.31,8.51-1.38-.49-.66-1.58-.66-2.42q.17-26.4.36-52.8A7.17,7.17,0,0,1,480,268c-.77-5.56,0-11.16-.39-16.73-.51-3.42-3.21-2.84-5.42-2.85-14.64-.06-29.27,0-43.91,0-4,0-7.94.09-11.9,0-3.35-.09-4.67,1.4-4.57,4.68.11,3.69.05,7.38,0,11.08C413.82,265.93,414,267.75,412.9,269.33Z"/><path class="cls-11" d="M415,366.68l46.52,0-1,1.65c-1.51,1.51-4,.34-5.52,1.87.48,1.6,2.5,1,3.09,2.29a17,17,0,0,1-3.6,5.63q-16.24,0-32.49,0c-6.54,0-7-.5-7-6.95Z"/><path class="cls-12" d="M23.44,351.59c1.21-1.4,2.83-.7,4.24-.7q44.05-.08,88.12,0c.89,3.44-.46,4.29-3.91,4.28-28.89-.12-57.78,0-86.67,0C23.59,354.46,23.54,353,23.44,351.59Z"/><path class="cls-5" d="M86.25,283.42l29.62-17.24a137.48,137.48,0,0,1-.07,18l-29.56-.13q-.45-.24-.3-.45A.43.43,0,0,1,86.25,283.42Z"/><path class="cls-8" d="M471.86,346.72l-54.3,0c-1-3.21,1-4.59,3.44-5.69,16.65-.53,33.29-.16,49.94-.2a3.79,3.79,0,0,1,3.29,1.33Z"/><path class="cls-13" d="M1.47,276.06h76.9c1.1,0,2.19,0,3.29,0s2.09,0,1.94,1.44c-.12,1.09-1.13,1-1.93,1-1.09,0-2.19,0-3.29,0l-76.89,0C1.48,277.77,1.48,276.91,1.47,276.06Z"/><path class="cls-14" d="M62.31,196.84c-2.52-3.32-6-3.35-9.8-3.31-15.64.16-31.28.1-46.93.12A2.76,2.76,0,0,1,6.19,191c.31,2,1.85,1.65,3.18,1.65,15.77,0,31.53-.08,47.3.09,2.86,0,3.85-2.19,5.73-3.33a1.49,1.49,0,0,1,2.4-.7c2.35,2.21,5.15,2.85,8.32,2.79,6.59-.11,13.19-.17,19.77.06,1.69.07,4.54-.7,4,2.84l0,0c-1.6,1.34-3.55,1.21-5.44,1.22-5.85,0-11.7.08-17.55,0a19.76,19.76,0,0,0-9.5,1.81A2.62,2.62,0,0,1,62.31,196.84Z"/><path class="cls-15" d="M116.07,291.51c2.44,1.58,3.12,4,3.11,6.71,0,8.07,0,16.14,0,24.22a8.66,8.66,0,0,1-3.2,7.2Q116,310.58,116.07,291.51Z"/><path class="cls-16" d="M15.5,324.7c1.39,1.33,3.12.7,4.69.7,17.41.06,34.83,0,52.24.05,1.45,0,3-.29,4.66.54-1.28,1.61-2.85,1.06-4.17,1.06-18.38,0-36.75,0-55.13.06-1.41,0-3-.66-4.21.81-1.18-.52-.59-1.65-.85-2.48C13.47,324.53,14.31,324,15.5,324.7Z"/><path class="cls-17" d="M13.62,328H76.75v1.63h-63Z"/><path class="cls-17" d="M14.4,330.52h63C75.85,332.57,74.28,332,73,332c-17.83,0-35.65,0-53.47.07-1.41,0-3-.71-4.21.78C14.38,332.31,14.4,331.42,14.4,330.52Z"/><path class="cls-17" d="M15.31,332.86H76.72v1.63H16C15.19,334.21,15.25,333.53,15.31,332.86Z"/><path class="cls-18" d="M489.28,289.08q0-25.11.08-50.22c1.54,2.88.26,6,.78,9,1.21,1.52,1,3.35,1.08,5.11.07,1.49-.13,3.06,1.38,4A136.19,136.19,0,0,1,489.28,289.08Z"/><path class="cls-19" d="M474.43,338.61c.27,0,.53,0,.8,0l-.84,2.45a3.91,3.91,0,0,1-2.4.39c-16.89,0-33.78.07-50.67-.05-1.05-.36-1-1.14-.73-2a2.77,2.77,0,0,1,1.37-.82C439.45,338.58,456.94,338.65,474.43,338.61Z"/><path class="cls-20" d="M487.5,194.42c-1.57-1.2-3.41-.82-5.16-.82-24,0-48,0-72-.08-1.43,0-3.79,1.37-4.25-1.61,1.36-1.11,1-2.72,1.28-4.16s-.22-3.16,2-3.23c-.5,8.18-.5,8.18,7.56,8.18q32.61,0,65.21,0c1.56,0,3.31.62,4.65-.82A2.87,2.87,0,0,1,487.5,194.42Z"/><path class="cls-21" d="M50.87,396.24c25.9,0,51.81-.07,77.72.19,3.57,0,3.75-2,4.58-4.17a5.09,5.09,0,0,1,0,6.56c-.93-1.39-2.22-1.72-3.86-1.72q-36.84.07-73.68,0c-1.19,0-2.52-.36-3.38.93A2.64,2.64,0,0,1,50.87,396.24Z"/><path class="cls-22" d="M86.25,283.42a3.75,3.75,0,0,0,0,.67q-41,.06-81.92.12c-.76,0-1.69.25-2.07-.81Z"/><path class="cls-23" d="M420.85,341l53.54.1c-.06.34-.11.68-.16,1L420,342a2.23,2.23,0,0,1-2.55,0,1,1,0,0,1,.18-1.25A2.65,2.65,0,0,1,420.85,341Z"/><path class="cls-24" d="M26,319.53l-1.53.3a20.92,20.92,0,0,1-14-.1c0-.57-.07-1.13-.1-1.7l17.28,0C28.11,319.66,26.48,319,26,319.53Z"/><path class="cls-25" d="M492.6,257c-2,.2-2.64-.79-2.55-2.66.1-2.16.07-4.33.09-6.5l2.43.09C493.71,251,492.75,254,492.6,257Z"/><path class="cls-26" d="M458.16,372.52l-2.46-.12c-1.37,0-2.57-.47-2.59-2s1.17-2.05,2.54-2.06c1.65,0,3.3,0,4.94,0A8.84,8.84,0,0,1,458.16,372.52Z"/><path class="cls-27" d="M21.91,322l-1.54.29c-2.48,1.53-5.22.82-7.86.87-.23,0-.45,0-.67-.06-.89-.64-.64-1.63-.74-2.51,3.84-1.14,7.76-.21,11.64-.49.36.1.87.08.87.61C23.62,321.85,22.5,321.59,21.91,322Z"/><path class="cls-28" d="M8.73,288.31l-1.15-1.48,21-.11-1.66,1.7A92.61,92.61,0,0,1,8.73,288.31Z"/><path class="cls-29" d="M15.5,324.7l-2.77.74c-1-.51-.63-1.54-.89-2.34l.27-.21c2.23-.67,4.52-.2,6.77-.3,1.57,1.75-.51,1.38-1.09,1.88Z"/><path class="cls-6" d="M23.51,320.54l-12.41,0c-.22-.29-.44-.57-.65-.86l14.05.09a4.51,4.51,0,0,0,0,.52A.7.7,0,0,1,23.51,320.54Z"/><path class="cls-20" d="M409.41,184.52c-1.66,1.23-.86,3-.92,4.54-.06,1.7-.26,3-2.4,2.85q0-12.76-.07-25.53c.13-.15.27-.3.4-.46,5.41-1.85,10.41-4,12.7-10,3.43-8.94-.75-18.16-9.86-21.1-1.29-.42-2.74-.42-3.81-1.42-1.39-1.88-3.37-2.15-5.51-2.14-1.9,0-3.88.29-5.54-1-.08-3.58-.15-7.16-.23-10.74-1.87-1.36-4.28.43-6.13-1-.23-.79-.4-1.6-.69-2.36-1.45-3.69.28-6.4,4.27-6.69,2.05-.15,2,1.71,2.36,2.78.79,2.21,1.72,3.56,4.41,3.05s3.81-1.78,3.38-4.48c-.46-2.93.9-3.74,3.72-3.72s4.05.63,3.82,3.66c-.15,2-.86,4.09,2.66,4.84s4.27-1,4.87-3.23c1-3.59,3-2.46,5.27-1.69,2.56.87,3,2.23,2,4.67-.6,1.43-2.58,3-.58,4.75s4.07,3.09,6.32,0c.77-1,1.76-3.17,3.35-2.32a11.15,11.15,0,0,1,4.28,4.31c.76,1.36-1.17,2.26-2.11,3.07-2.12,1.83-2.71,3.31-1,6.09,1.85,3,3.68,1.33,5.08.48,3.48-2.1,4.56-.41,5.71,2.58,1,2.54.49,3.59-2.11,4.39-1.6.5-4.16.62-4,3.33s1.2,4.4,4.35,3.93c2.93-.44,4.82,0,4.75,3.93-.06,3.61-1.32,4.59-4.56,4.17-2.21-.29-4,0-4.55,2.81s1,3.59,3.16,4.31c2.35.78,4.14,1.68,2.75,5s-3,3.66-5.84,2.06c-1.74-1-3.33-1.57-4.89.74s-1,3.62.67,5.33c3.17,3.2,2.82,5.19-1.13,7.59-2.48,1.51-3.2-1.12-4-2.19-2.22-2.91-4-1.67-6.06,0s-.62,3.38.07,4.77c1.24,2.5,1.09,3.77-1.85,4.79-2.46.84-4.62,1.91-5.24-1.63C415.75,182.4,412.13,184.71,409.41,184.52Z"/><path class="cls-20" d="M361.4,118.62l-.7.32c-1.21-1.31-1.3-3-1.34-4.6-.05-2.33,0-4.66,0-7,0-5.41-.19-5.6-5.47-5.62-12.31,0-24.62,0-36.93,0a37.68,37.68,0,0,1-4.51-.1c-.78,0-1.55,0-2.33,0-13.16.22-26.33,0-39.49.1-6.72,0-6.61,0-6.78,6.91-.08,3.34,1,6.9-1.33,10-.56.22-1,1.18-1.74.26-2-3.88-.9-8.07-1.1-12.12-.22-4.65-.36-5-4.88-5q-17.65-.08-35.33,0c-4.69,0-4.79.37-5.08,5.27-.22,3.87,1.19,8-1.36,11.57-.54.26-1,1.21-1.71.28-2-3.88-.89-8.06-1.09-12.11-.23-4.63-.38-5-4.87-5-12,0-24.08,0-36.12,0a7.9,7.9,0,0,0-4,.67c-2,1.77-1,4.12-1.21,6.21-.36,3.31.83,6.82-1.29,10.14-1.79-.82-1.81-2.35-1.91-3.76-.18-2.59-.05-5.2-.08-7.8-.07-5.11-.34-5.45-5.3-5.46q-17.87-.06-35.75,0c-4.6,0-4.91.37-5,4.87,0,2.47,0,4.93,0,7.4,0,1.65-.1,3.3-1.31,4.62-.56.12-1,1.11-1.71.25-1.82-2.89-1.12-6.12-1.17-9.22-.12-8.19.68-7.92-7.75-7.92q-16.23,0-32.46,0a20.36,20.36,0,0,1-5.72-.39c-.74-.32-1.49-.63-1.36-1.65q49.4-.06,98.8-.1,97.16,0,194.3-.09c4.05,0,5.68.8,5.27,5.15C361.11,109.26,361.42,114,361.4,118.62Z"/><path class="cls-30" d="M63.17,99.68l.84.79a5.37,5.37,0,0,1,1.19,3.84c0,13.46.34,26.91-.19,40.36a9.48,9.48,0,0,0,0,3.79c.52,12,.18,24,.19,36.08,0,1.48,0,3-1.39,4.11l-1.41.8q0-43.39-.06-86.79C62.33,101.61,62,100.42,63.17,99.68Z"/><path class="cls-31" d="M388,118.4c2,.65,4.35-.83,6.14,1-2.71-.68-5.58.39-8.23-.8Z"/><path class="cls-31" d="M380.69,118.65a6.35,6.35,0,0,1-5.47,0l1.32-.25a2.47,2.47,0,0,1,2.8,0Z"/><path class="cls-32" d="M379.34,118.39h-2.8C377.47,116.64,378.4,116.61,379.34,118.39Z"/><path class="cls-20" d="M133.16,398.82c0-2.19,0-4.37,0-6.56,2.22-1,5.88,1.71,6.74-3.08.52-2.87.5-4.62-2.68-5.29s-1.63-3-1.43-4.77l4-2.63a6.24,6.24,0,0,1,2-.13c3.22-.23,4.43-2.39,2.44-4.94s-1.54-4.59.63-6.77,4.21-2.14,6.35,0a2.73,2.73,0,0,0,3.73.45,2.83,2.83,0,0,0,1-4c-1.7-3.61.46-4.9,3.31-6,3.16-1.23,5.3-.12,5.94,2.94.71,3.4,3.89,1.05,5.2,2.71,0,1.94.77,2.86,2.9,2.74,2.81-.15,5.64,0,8.46.06,1.68,1.66,1.34,3.83,1.26,5.83-.13,3.24,1.31,4.33,4.43,4.29a127.57,127.57,0,0,1,14.37.19,5.1,5.1,0,0,1,3,1.8c1.34,1.54,1.68,0,2.29-.73a.71.71,0,0,1,1,0c0,1.85.08,3.28,2.68,2,3.62-1.77,3.39,1.72,4.48,3.5,1.49,2.43-.25,2.92-1.89,3.77s-4.23.44-4.26,3.12.68,5.18,4.44,4.72c2.57-.31,4.72-.36,4.69,3.59,0,3.62-1.54,4.25-4.43,3.85-2.57-.36-4.09.44-4.63,3.19-.59,2.93,1.39,3.63,3.37,4.18,2.92.83,3.46,2.13,2.38,5.11-1.19,3.26-2.83,3.6-5.42,2.1s-4.15-1.59-5.83,1.5c-1.39,2.55.4,3.16,1.47,4.3,2.67,2.84,1.89,6.73-1.76,7.85-1.88.58-2.3-1.54-3.47-2.29-1.39-.89-2-3.42-4.58-1.3-2.09,1.7-3.42,2.89-1.76,5.61,1.25,2.07,1.91,3.86-1.48,5.23s-5,.51-5.71-2.61c-.58-2.42-1.8-2.75-4.11-2.41-2.65.38-2.94,1.8-3,4,0,4.09-1.91,5.34-5.86,4.3-2.23-.59-1.63-2.34-1.54-3.67.17-2.43-.54-3.81-3.1-4.35-2.72-.57-4.34.4-4.91,2.93-.86,3.82-3.13,2.33-5.34,1.69-2.62-.75-3.18-2.27-1.89-4.54,1.14-2,1.36-3.42-.93-5.13-2.68-2-4-.52-5.33,1.22-1.79,2.28-3.18,1.82-4.88-.12-1.53-1.77-3.84-3.26-.8-5.57,2.1-1.6,2.34-3,.74-5.43s-3.08-2.23-5-1.14-3.37,1.09-4.18-1.6c-.7-2.35-2.65-4.64,1.41-5.65,2.45-.61,3.09-1.77,2.38-4.43-.57-2.12-1.1-3.14-3.38-3C135.46,399.63,134.12,400,133.16,398.82Z"/><path class="cls-2" d="M394.4,130.18c2.67,0,5.35.16,8,0,2.33-.13,3.55.72,3.64,3.08a7.17,7.17,0,0,1,1.24,4.67q.06,11.91,0,23.82a6.73,6.73,0,0,1-1.28,4.65v0c-1.52,1.32-.83,3.09-.84,4.65-.09,21.78,1.3,43.54.81,65.33-2.53,1.07-2.51,3.23-2.51,5.52q0,36,0,72.08c0,1.64-.09,3.29-.13,4.93-7.82.73-15.63,1.51-23.45,2.17-5.27.44-10.56.7-15.83,1.1-1.42.11-3-.63-4.19.86l-.57.49c-5.1,1-10.3,1.14-15.47,1.49-10.92.74-21.82,1.68-32.76,1.93a9.42,9.42,0,0,1-1.48.37c-8.78-.07-17.5,1.24-26.28,1a15.24,15.24,0,0,1-4.89-.56c-2.38-1.36-5-1-7.6-1.13-2-.09-4.15.37-5.86-1.2.08-9.75.09-9.59,9.71-9.92,25.63-.88,51.2-2.63,76.75-4.71,13.12-1.07,26.22-2.24,39.33-3.28,3.84-.31,3.59-2.18,3.59-4.77q0-75.18,0-150.35C394.32,145,394.37,137.6,394.4,130.18Z"/><path class="cls-2" d="M203.16,375c-6,0-12-.13-18,0-2.43.05-3.46-.65-3.32-3.22s-.07-5.44-.13-8.16c8.65-.05,17.29-.14,25.93-.15,37.89,0,75.77-.06,113.66.08,3.72,0,5.23-.88,4.73-4.72a40.92,40.92,0,0,1,.08-6.16c1.44,2.28.66,4.82.63,7.21,0,2.65.8,3.55,3.52,3.57,7.33,0,7.12.18,7.38,7,.15,3.67-1,4.58-4.6,4.57-40.57-.13-81.14-.08-121.71-.08-1.1,0-2.19.07-3.29.11l-.31,0h-.32C206,376.1,204.58,375.68,203.16,375Z"/><path class="cls-33" d="M265,325.45c3.37,0,6.74,0,10.11,0,1.28,0,2.85-.4,3.14,1.6.45,2-.43,3.87-.7,5.8a3.75,3.75,0,0,1-.85,1.55c-2,5.88.08,11.57.79,17.32-4.74,1.19-7.27-1.06-9.05-5.27A42.36,42.36,0,0,1,265,325.45Z"/><path class="cls-34" d="M276.66,334.4c0-.5,0-1,0-1.5,1.55-1.46,3.51-1.3,5.4-1.31,6.39,0,12.79-.22,19.17.05,4.42.19,8.09-.21,9.12-5.41h0c2-.81,2.48.74,2.67,2,.43,2.87,2.27,3.34,4.7,3.33,12,0,24.07-.06,36.11,0,3.17,0,5-.92,4.76-4.41a5.29,5.29,0,0,1,1.28-4.2h0c3.47,2.93,1.36,6.77,1.3,10.09,0,2.32-2.91,1.28-4.49,1.28Q316.67,334.47,276.66,334.4Z"/><path class="cls-6" d="M115.22,165.41c-.06-10-.06-20-.22-30,0-2.23.75-3,2.85-2.72a11.21,11.21,0,0,0,1.64,0q126.21,0,252.41.07c1.39,0,3.69-1.47,4.25,1.44a9.68,9.68,0,0,1-1.67,1.94c-14.36,9.53-29.2,18.3-43.58,27.51,13.71,0,27.62-.07,41.53,0a5.45,5.45,0,0,1,2.78.65,1.13,1.13,0,0,1,.43,1.29,3.28,3.28,0,0,1-1.3.84,21.5,21.5,0,0,1-6.14.45q-122.77,0-245.53,0C120.13,166.86,117.39,167.48,115.22,165.41Z"/><path class="cls-4" d="M115.22,165.41q104.19,0,208.38,0c17.29,0,34.58-.2,51.87-.31a4.66,4.66,0,0,1,.4,2.8q0,45.45,0,90.89a6.12,6.12,0,0,1-.26,2.44c-2.41,1.89-5.27,1.24-7.95,1.25q-93.72,0-187.44,0c-2.47,0-4.95.11-7.42-.05q-18,.07-36,0c-2.17,0-4.4.15-6.31-1.25-2.45-5-6.5-7.09-12-6.65-1.69.14-3.43.59-3.42-2.42C115.18,223.24,115.17,194.33,115.22,165.41Z"/><path class="cls-4" d="M376,292.83c-1.49.12-3,.35-4.47.35q-118.08,0-236.18.1c-3.72,0-5-.86-4.65-4.65s.17-7.39.22-11.09c2.27-1.84,5-1.25,7.53-1.23,55.95.36,111.9.06,167.85.15,21,0,42,0,62.95,0,2,0,4.13-.38,6,.74C376.68,282.36,375.43,287.64,376,292.83Z"/><path class="cls-1" d="M64,145.71q0-22.62,0-45.24c14.69,0,29.38,0,44.08-.1,2.81,0,3.94.72,3.78,3.68-.26,4.93-.18,9.88-.24,14.82-3.55,0-7.11.18-10.64-.07-3.19-.24-3.9,1.07-3.85,4,.12,7.63-.06,15.26-.12,22.89-1.14,1.3-2.71,1.18-4.19,1.19q-12.31.06-24.64,0C66.71,146.89,65.14,147,64,145.71Z"/><path class="cls-1" d="M63.8,188.65,64,147.46c.82-.93,1.95-.85,3-.86q13.47,0,26.95,0c1.08,0,2.2-.08,3,.85.06,13.54.18,27.08.12,40.61,0,2.12,1,4.3-.2,6.38-.3-2.29-2.09-1.72-3.48-1.73-7.38,0-14.76-.21-22.13.07C67.74,192.92,65.41,191.68,63.8,188.65Z"/><path class="cls-1" d="M64,196.87c2.12-2.23,4.71-2.68,7.72-2.61,8.42.21,16.85.12,25.28.15q.06,22.17.11,44.34l-.56.6c-3,1.28-6.21.63-9.32.67q-9.84.14-19.68,0c-2.39,0-4.38-.5-4.38-3.57,0-12.43-.05-24.87,0-37.31A3.44,3.44,0,0,1,64,196.87Z"/><path class="cls-1" d="M170.36,360.78c-3.47.77-5.71.06-6.83-3.92-.92-3.29-3.36-.74-5.07-.3s-3.17,1-1.93,3.39c1.13,2.15,2.14,4.17-.95,6.19-2.93,1.9-4.23.31-5.76-1.46-2.15-2.48-3.26-.28-4.55.95s-3.31,2.57-.77,4.53c2.28,1.76,2.85,3.37.84,6s-3.69,1.15-5.58.28c2-3.08,2.58-6.43,2.53-10.12-.14-10.66,0-21.33.05-32,1.51-1.29,3.35-1,5.1-1q26.9,0,53.77,0c5.89,0,6.59.62,6.41,6.7-.11,3.88,1.1,7.93-1,11.65-10.1.06-20.2.14-30.31.18-5.77,0-5.76,0-5.79,5.64C170.49,358.61,170.4,359.69,170.36,360.78Z"/><path class="cls-31" d="M113.34,118.62c0-4.94.13-9.88,0-14.83-.06-2.37.51-3.43,3.17-3.41q21.22.16,42.44,0c2.4,0,3.07.93,3,3.17a64.2,64.2,0,0,0,.91,14.29c0-4.34-.07-8.68,0-13,0-1.42-.67-3,.74-4.25a27.68,27.68,0,0,1,.06,18.15c-7.08,0-14.16.13-21.24.11C132.76,118.82,123.05,118.7,113.34,118.62Z"/><path class="cls-31" d="M312.1,100.47c14.94,0,29.89,0,44.84-.1,2.93,0,3.78.94,3.69,3.77-.16,4.93,0,9.87.07,14.81l-43.81-.1c-1.63,0-3.27-.14-4.91-.21A30,30,0,0,1,312.1,100.47Z"/><path class="cls-31" d="M163.72,118.73l-.06-18.15c15,0,29.94-.07,44.91-.18,2.07,0,3,.6,2.92,2.81-.16,5.22-.14,10.44-.2,15.65Z"/><path class="cls-31" d="M262.49,118.6c0-4.78.21-9.57,0-14.34-.16-3.14.94-3.93,4-3.89,14.62.15,29.25.08,43.88.09a37.22,37.22,0,0,1-.11,18.4Z"/><path class="cls-31" d="M213,118.58c0-4.93.1-9.86,0-14.79-.06-2.38.58-3.43,3.2-3.41q20.74.15,41.5,0c2.5,0,3.38.77,3.28,3.29-.2,5.06-.16,10.13-.21,15.19q-21.63,0-43.25,0C216,118.84,214.5,118.67,213,118.58Z"/><path class="cls-6" d="M375.44,277.26c-1.78.07-3.56.19-5.34.19H154.34c-7.82,0-15.65.05-23.47.08q-.19-8.16-.41-16.31l42.29,0c-.14,2-1.71,2.75-3.05,3.62-5.51,3.59-11.13,7-17.13,10.72,2.19-.11,4.06-.1,5.93-.1q104.34,0,208.67,0c2.45,0,4.95-.32,7.34.56A1.63,1.63,0,0,1,375.44,277.26Z"/><path class="cls-31" d="M97.07,238.75c0,4.63.05,9.26.11,13.89,0,2.11-1.43,2-2.81,2l-30.46-.15c-1.45-4.61-.94-9.27-.28-13.93,1.41-1.2,3.12-.77,4.71-.78,9-.09,18,.07,27-.09a3,3,0,0,0,1.37-.55Z"/><path class="cls-1" d="M231.89,334.42A34.64,34.64,0,0,1,227,349.36c-.95,1.64-2.07,2.65-4.19,2.57-4.88-.18-9.78-.14-14.67-.19-1.73-5.21-.56-10.56-.67-15.85a2.31,2.31,0,0,1,2.44-2.34c7-.24,14-.6,20.93.2C231.3,333.8,231.56,334.17,231.89,334.42Z"/><path class="cls-35" d="M231.89,334.42c-6.57,0-13.14.24-19.7,0-3.43-.15-4.21,1.11-4.05,4.22.21,4.37,0,8.76,0,13.13l-1.57,0c0-4.39-.22-8.8.05-13.17.2-3.32-1-4.17-4.2-4.15-18.94.14-37.88.07-56.82.06-1.09,0-2.19,0-3.29-.07l-.06-1.48c1.95-1.73,4.35-1.2,6.61-1.28s4.33,0,6.5,0c5,0,5,0,5.4-4.82A5.9,5.9,0,0,1,162,323a4.07,4.07,0,0,1,.78,0,5.3,5.3,0,0,1,1.28,4.2c-.2,3.55,1.71,4.41,4.83,4.37q9.85-.13,19.72,0c7.38.1,14.78-.38,22.16.29a17.68,17.68,0,0,0,3,.61c4.52.1,9,0,13.54.06,1.62,0,3.32-.19,4.64,1.13A.8.8,0,0,1,231.89,334.42Z"/><path class="cls-1" d="M212.93,326.41c6.42-.7,12.76,1.34,19.18.65a16,16,0,0,1-.12,5.81c-6.25.76-12.51.34-18.78.23C211.48,330.94,211.66,328.7,212.93,326.41Z"/><path class="cls-36" d="M375.44,277.26a3.08,3.08,0,0,0-.06-.61,21.41,21.41,0,0,1,.07-15.42,10,10,0,0,0,.25-1.61q0-46.45,0-92.91a12.86,12.86,0,0,0-.22-1.62l0-.36a.38.38,0,0,1,.66,0q.07,26.5.14,53,0,35.55,0,71.11c0,1.33.41,2.73-.35,4Q375.7,285,375.44,277.26Z"/><path class="cls-37" d="M97,147.45H64c-.91-.58-.92-1.16,0-1.75H97A1.31,1.31,0,0,1,97,147.45Z"/><path class="cls-38" d="M310.19,118.86q.06-9.19.11-18.4h1.8L312,118.64C311.4,118.82,310.91,119.78,310.19,118.86Z"/><path class="cls-36" d="M376.17,164.71l-.66,0-.17-.18a3.15,3.15,0,0,1-1-2.2c-.14-9.13-.67-18.26.3-27.37l1.47-.8Q376.17,149.45,376.17,164.71Z"/><path class="cls-39" d="M251,311.28c-6.25.93-10.29-2.36-9.84-8,.13-1.59.13-3.38,2.49-3.36l.35.47c0,3.34-.88,7,3.33,8.75C248.5,309.89,250.61,309.15,251,311.28Z"/><path class="cls-30" d="M64,240.6l-.12,13.85H62.34q0-6.94,0-13.9a1.13,1.13,0,0,1,.84-.44A1.27,1.27,0,0,1,64,240.6Z"/><path class="cls-40" d="M213.1,332.88H232l-.06.8-18.84,0q-.28-.27-.18-.51C213,333,213,332.88,213.1,332.88Z"/><path class="cls-41" d="M243.64,299.88c2-3.54,4.43-4,9.06-1.69.26.79-.23,1.14-.84,1.41-2.78-.61-5.49,1.19-8.29.26Z"/><path class="cls-42" d="M255.06,300.73c1.95,3,.61,5.58-.88,8.18-.79.07-1.08-.45-1.27-1.08a31.89,31.89,0,0,1,.73-6.16C253.93,301.08,254.29,300.6,255.06,300.73Z"/><path class="cls-43" d="M253.43,308l.75.94c-.54,1.5-1.84,2-3.19,2.37-1.08-1.34-3,0-4.09-1.3C248.76,308.28,251.12,308.23,253.43,308Z"/><path class="cls-44" d="M255.06,300.73c-.29.36-.59.71-.89,1.06-1.61-.16-2.54-1-2.46-2.67l1-.93A3.9,3.9,0,0,1,255.06,300.73Z"/><path class="cls-30" d="M63.13,240.53h-.75q0-21.85-.07-43.7l1.65,0c0,12.62.11,25.23-.1,37.85-.06,3.52,1.12,4.35,4.44,4.3,9.46-.16,18.92,0,28.38.08a2.15,2.15,0,0,1,0,.67c-9.56.8-19.14.1-28.7.36C66.36,240.18,64.68,239.71,63.13,240.53Z"/><path class="cls-1" d="M211.4,332.78c-14.8,0-29.6,0-44.4.13-3.24,0-4.51-.86-4.14-4.14a42.49,42.49,0,0,0-.06-5.75q21.7,1.58,43.42,3.15c1.76.12,3.54.1,5.31.14C212.56,328.49,212.81,330.65,211.4,332.78Z"/><path class="cls-1" d="M162,323c-.38,9.85-.38,9.84-10.3,9.85-3.15,0-6.29,0-9.44.05,0-.13,0-.27,0-.41-.19-12.16-.17-12.26,12.05-10.15A65,65,0,0,0,162,323Z"/><path class="cls-20" d="M211.4,332.78c0-2.16.09-4.31.13-6.47l1.4.1c0,2.16.11,4.31.17,6.47,0,.25,0,.5,0,.76A1.69,1.69,0,0,1,211.4,332.78Z"/><path class="cls-45" d="M445.45,239.73c2.33,0,4.66,0,7,0,.64,0,1.51-.1,1.66.79.18,1.05-.68,1.53-1.49,1.54q-7.2.08-14.4,0a1.3,1.3,0,0,1-1.3-1.33c0-.91.85-.95,1.52-1C440.78,239.72,443.11,239.73,445.45,239.73Z"/><path class="cls-46" d="M447.34,357.3c1.71.94,5.19-1.43,5.18,1.92,0,2.69-3.29,1.64-5.1,1.55-2-.1-5.66,1.48-5.59-1.84C441.88,356.14,445.44,358.12,447.34,357.3Z"/><path class="cls-6" d="M412.9,269.33c-.07-6.43-.1-12.85-.26-19.27-.05-2.24,1-2.77,3-2.77q31.39.06,62.78,0c3.33,0,2.37,2.14,2.38,3.91-.91,4.28-4,7.33-6.12,10.92-1,1.7-2.44,3.18-3.12,5.14,3.13,1,6.47-.88,9.17,1.42a1.21,1.21,0,0,1-.06.75Z"/><path class="cls-47" d="M417.54,295.33c0-5.35.16-10.71-.06-16.05-.13-3,.95-3.83,3.75-3.61a60.94,60.94,0,0,0,8.22,0c2.57-.15,3.66.55,3.62,3.39-.15,10.84-.12,21.68,0,32.51,0,2.4-.53,3.59-3.18,3.37-3.93-.34-8.94,1.58-11.54-.74s-.58-7.26-.77-11.06C417.43,300.55,417.54,297.93,417.54,295.33Z"/><path class="cls-6" d="M443.11,307.39l-.83,1.51c-.06,1-1.5.78-1.61,1.77-.15.54-1,1.05-.05,1.63.25.15.33.3.25.46s-.16.24-.24.24c-2.36-.07-2.41,2.58-4,3.4-.05-4.65,0-9.3-.19-13.94a5.81,5.81,0,0,1,1.68-4c3.36-4.35,3.56-7.67,0-11.83-2.66-3.12-1.28-6.48-1.58-9.74a1.21,1.21,0,0,1,1.26-1.34c3.54.15,7.16-1.34,10.48,1.66,4.36,3.94,7.88,3.73,12.34-.2a5.46,5.46,0,0,1,4.38-1.7c3.6.38,7.3-.88,10.81.71-13,0-13,0-19.48,11.34a16.79,16.79,0,0,0-1,2.65c-2.19-.13-2.52-2.7-4.36-3.32-1.49-.49-3.13-1.87-4.5-.49-1.21,1.21.05,2.78.49,4.16.71,2.25,3.24,2.8,4.36,4.67-1.15,1.83-2.91,3.3-3.29,5.59a1.37,1.37,0,0,1-1.11.45,35.54,35.54,0,0,1-4.73-.1,59.55,59.55,0,0,0,6,.13c8.69.2,17.38-.42,26.06.34-1,1.38-2.51.8-3.79.81-6.83.06-13.66,0-20.48,0-1.6,0-3.37-.41-4.34,1.47a.86.86,0,0,1-.85.6c-1.22,0-2.45.19-2.79.09a12.47,12.47,0,0,1,2.34,0l.36.42-.75,1.43a2.85,2.85,0,0,1-2.9.31C441.47,307.41,442.69,306.46,443.11,307.39Z"/><path class="cls-48" d="M417.47,341.07v.87a7.67,7.67,0,0,1-.77,4.73c-.94-.44-.82-1.31-.82-2.1q0-12.22,0-24.46c0-.78-.15-1.66.81-2.1a4.08,4.08,0,0,1,1.18,2.17,3.59,3.59,0,0,1,.06,1c-.08.47-.18.93-.22,1.39a9.93,9.93,0,0,0,.2,1.33,8.75,8.75,0,0,1,.09.88,1.37,1.37,0,0,0,1.23,1.15c3.41.46,6.92-.63,10.24.77l.39.49c-.73,2.88,1.61,1.55,2.44,1.55,12.58.1,25.16,0,37.74.1,1.4,0,3-.67,4.2.81-7.09.74-14.2.21-21.3.3-7.94.1-15.88,0-23.8,0a53.71,53.71,0,0,1-9.79.83c-.44.22-.72.47-.09.86,2.2.51,4.72-.68,6.58,1.36l-.8.72c-1.9,1.79-4.6.21-6.59,1.57a8.21,8.21,0,0,0-.44.83,5,5,0,0,0-.29,1.32c0,.45.12.9.2,1.35a3.63,3.63,0,0,1,0,.93C417.8,340.19,417.55,340.6,417.47,341.07Z"/><path class="cls-6" d="M417.5,320.48c-1-.6-.78-1.57-.81-2.47h18.95c-.26.8-.52,1.6-.79,2.4a1.93,1.93,0,0,1-1.41.51C428.1,321.8,422.76,322.53,417.5,320.48Z"/><path class="cls-49" d="M416.7,346.67c.24-1.58-.64-3.34.77-4.73L420,342c-1,1.47-2.36,2.74-2.45,4.68Z"/><path class="cls-50" d="M474.43,338.61c-.86.94-2,.72-3.08.72l-49.71-.05a.67.67,0,0,1-.26-.54c0-.21,0-.31.06-.32a2.28,2.28,0,0,1,1.05-1,.83.83,0,0,1,.84.29q23.43,0,46.86.07C471.61,337.83,473.24,337.22,474.43,338.61Z"/><path class="cls-51" d="M451.34,295.06c-4.2-1-5.84-4.15-6.46-8-.3-1.9.48-2.83,2.53-2.56a9.43,9.43,0,0,1,7.94,5.58C455.86,295.52,455.86,295.52,451.34,295.06Z"/><path class="cls-50" d="M432.42,322.82h41.44c0,.53,0,1.06,0,1.59l-42.35.21-.27-.32a1.31,1.31,0,0,1,.15-.8,2.75,2.75,0,0,1,.6-.58Z"/><path class="cls-52" d="M440.37,317.55h33.54l0,.72H440.38Z"/><path class="cls-50" d="M440.67,310.67c-.57-.94-.57-.94,1.61-1.77h31.64v1.77Z"/><path class="cls-23" d="M425,335.24h48.78V336H424.1a.61.61,0,0,1-.18-.58c.05-.2.1-.3.16-.3A.71.71,0,0,1,425,335.24Z"/><path class="cls-53" d="M426.61,331.85h47.11v.89H426.57l-.26-.46Z"/><path class="cls-17" d="M428.21,329.61l46,0c-.37.76-1.07.74-1.75.74l-44.28-.13c-.26-.14-.34-.28-.26-.42S428.12,329.61,428.21,329.61Z"/><path class="cls-23" d="M430.77,326.14h43v1H429.86l.05-.32a.54.54,0,0,1-.16-.54c.06-.18.11-.27.17-.27A.71.71,0,0,1,430.77,326.14Z"/><path class="cls-23" d="M434,320.65l.87-.25h38.9v.78H434Z"/><ellipse class="cls-54" cx="457.22" cy="315.13" rx="23.59" ry="0.29"/><path class="cls-23" d="M443.11,307.39c-.84-.27-1.86.3-2.73-.74l3.57-.29h30v1Z"/><path class="cls-55" d="M440.63,313a1.51,1.51,0,0,1,0-.7h33.27v.7Z"/><path class="cls-6" d="M416.7,323a1.7,1.7,0,0,1,.8-1.67,53.3,53.3,0,0,1,15.75.14l-.83,1.36-.12.26A24.63,24.63,0,0,1,416.7,323Z"/><path class="cls-53" d="M444.7,304.05l.94-.27h28.21v1.15H444.7l0-.32Z"/><path class="cls-56" d="M430.77,326.14l-.9.25a47.08,47.08,0,0,1-12.38-.14c-.83-.56-.81-1.11,0-1.64,4.65-1.42,9.31-1.14,14-.16l0,.17Z"/><path class="cls-57" d="M447.15,300.79l.9-.14c7.48,0,14.95,0,22.42.09,1.27,0,2.74-.64,3.78.73l-27.11,0c-.24-.15-.32-.3-.24-.44S447.07,300.79,447.15,300.79Z"/><path class="cls-6" d="M417.51,332c-.84-.55-.84-1.1,0-1.64a22.43,22.43,0,0,1,9.95.1l-.85,1.37v.36C423.57,332.45,420.53,332.79,417.51,332Z"/><path class="cls-58" d="M425,335.24l-.88.25c-2.22.91-4.43,1.57-6.59-.17-1.14-1.45,0-1.59,1-1.62,2.17-.05,4.35,0,6.53,0C425,334.23,425,334.73,425,335.24Z"/><path class="cls-59" d="M433.25,321.46l-15.75-.14v-.84l16.48.17c0,.17,0,.35,0,.53A5.1,5.1,0,0,1,433.25,321.46Z"/><path class="cls-60" d="M423.33,337.75l-.92.1a5.18,5.18,0,0,1-5.71,0,1.71,1.71,0,0,1,.79-1.67,8.12,8.12,0,0,1,5.86.15C423.34,336.78,423.34,337.26,423.33,337.75Z"/><path class="cls-61" d="M427.46,330.48l-9.95-.1c3.45-1.87,7.13-.5,10.7-.77v.63Z"/><path class="cls-62" d="M417.51,332l9.1.19a4.73,4.73,0,0,0,0,.53,6.28,6.28,0,0,1-.73.25C423.1,332.32,420.12,333.78,417.51,332Z"/><path class="cls-59" d="M423.35,336.3l-5.86-.15c0-.27,0-.55,0-.83l6.59.17c0,.17,0,.35,0,.52A4.85,4.85,0,0,1,423.35,336.3Z"/><path class="cls-63" d="M37.43,273.45c-8.79,0-17.58,0-26.37,0-1.44,0-3.22.4-3.16-2s1.9-1.91,3.29-1.91q26.37,0,52.74,0c1.39,0,3.3-.57,3.39,1.83.11,2.73-2,2.1-3.51,2.1C55,273.47,46.23,273.45,37.43,273.45Z"/><path class="cls-64" d="M12.51,294.89c6.93.06,11.44,4.29,12.06,10.77.15,1.63-.26,2.17-1.8,2.45-7.33,1.35-14.1-3.49-14.68-10.81C7.77,293.19,11.26,295.75,12.51,294.89Z"/><path class="cls-65" d="M77.1,290c.55,1.92.26,3.17-2.16,3.1-1.75,0-3.5.11-5.25.18l-30-.15c-1.09,0-2.19,0-3.29-.05s-1.89-.41-1.94-1.65c-.06-1.41.94-1.46,1.93-1.47,1.65,0,3.29,0,4.94,0Z"/><path class="cls-16" d="M26,319.53l1.6-1.46,1.72-.1h47.4v1.56Z"/><path class="cls-64" d="M8.73,288.31a39.79,39.79,0,0,1,18.16.11C20.39,294.49,15.21,294.46,8.73,288.31Z"/><path class="cls-16" d="M37.6,313H76.75v1.57H34.36C34.6,312.31,36.43,313.35,37.6,313Z"/><path class="cls-17" d="M45.86,308H76.77l0,1.83h-35c-2,0-4.06,0-6.08-.15-.94-.07-1.57-.56-.51-1.48a30.83,30.83,0,0,0,9.73,0Z"/><path class="cls-16" d="M41.73,310.53h35v1.61H38.4c-.14-2,1.86-.53,2.39-1.45Z"/><path class="cls-17" d="M50,305.55H76.77l0,1.85H45.89c-3.13,0-6.25,0-9.37-.14-.67,0-2.76.64-1.35-1.5a62.27,62.27,0,0,0,13.85,0Z"/><path class="cls-17" d="M54.12,303.06H76.74v1.85H50c-4.35,0-8.7,0-13-.14-.77,0-2.7.79-1.79-1.49a100.91,100.91,0,0,0,18,0Z"/><path class="cls-17" d="M58.25,300.58H76.74v1.87H54.13c-5.58,0-11.17,0-16.75-.19-.68,0-3.1,1.42-2.21-1.45a151,151,0,0,0,22.1,0Z"/><path class="cls-17" d="M62.38,298.09c4.77.54,9.62-.38,14.36.52V300H58.26c-7,0-13.92,0-20.87-.2-.68,0-3.11,1.43-2.22-1.44a210.61,210.61,0,0,0,26.23,0Z"/><path class="cls-61" d="M61.4,298.32c-2.55,1.48-5.35.75-8,.66-6.08-.2-12.22,1-18.24-.64Z"/><path class="cls-61" d="M57.27,300.8a69.72,69.72,0,0,1-22.1,0Z"/><path class="cls-61" d="M53.15,303.27a45.72,45.72,0,0,1-18,0Z"/><path class="cls-61" d="M49,305.75a27.2,27.2,0,0,1-13.85,0Z"/><path class="cls-66" d="M40.79,310.69l-2.39,1.45a6.82,6.82,0,0,1-.78.19c-.95-.31-2.2.39-3.07-1.19C36.64,310.16,38.75,310.7,40.79,310.69Z"/><path class="cls-61" d="M44.9,308.23a14.09,14.09,0,0,1-9.73,0Z"/><path class="cls-16" d="M17.79,324.47,19.41,323a.62.62,0,0,1,1-.2H76.75v1.65Z"/><path class="cls-16" d="M23.51,320.54l1-.2H76.75V322H21.91Z"/><path class="cls-16" d="M34.81,315.88H76.74v.76H34.82Z"/><path class="cls-56" d="M20.38,322.82l-1,.2-7.3-.13c2.66-1.52,5.5-.52,8.26-.6A1.35,1.35,0,0,0,20.38,322.82Z"/><path class="cls-8" d="M480.75,268.68H469.06l11.76-17.48Q480.78,259.94,480.75,268.68Z"/><path class="cls-60" d="M417.47,341.07c-.82-.56-.77-1.1,0-1.63,1.13-.82,2.24-1,3.35,0V341Z"/><path class="cls-67" d="M420.86,339.48l-3.35,0c0-.25,0-.51,0-.77a4.67,4.67,0,0,1,4.17-.05v.66A4.47,4.47,0,0,1,420.86,339.48Z"/><path class="cls-1" d="M406,166.41q0-16.57,0-33.14a16.6,16.6,0,0,1,0,33.14Z"/><path class="cls-1" d="M181.78,396.41c-6.71,0-13.42-.25-20.12,0-3.62.13-4.27-1.33-3.6-4.39,1.62-7.34,8.14-12.91,15.39-13.06,9.08-.19,15.39,4.27,17.42,12.42.39,1.58.51,3.22.76,4.83C188.39,398.18,185.1,397.93,181.78,396.41Z"/><path class="cls-1" d="M191.61,397.28c-1.63,8.42-6.42,13.65-15.06,15.23-7.38,1.34-17.56-5.76-18.53-13-.33-2.39,1.14-2.35,2.75-2.35,7,0,14-.05,21-.08C185.07,396.72,188.36,396.24,191.61,397.28Z"/><path class="cls-68" d="M203.16,375h4.26c-.31,1.23.3,2.78-1.28,3.66C204.65,377.83,204.28,376.09,203.16,375Z"/><path class="cls-40" d="M191.61,397.28l-9.83-.24q0-.32,0-.63l9.85-.21C191.62,396.56,191.62,396.92,191.61,397.28Z"/><path class="cls-1" d="M359.87,323c.1,9.85.1,9.85-9.84,9.85-11.12,0-22.25-.12-33.37.07-3.38.06-5.33-.52-4.67-4.41.2-1.17-.12-2.22-1.64-2.29.34-.23.67-.65,1-.65C327.57,325.61,343.66,323,359.87,323Z"/><path class="cls-31" d="M310.33,326.23c.05,7.89.66,6.53-6.33,6.6-9.12.09-18.24.05-27.36.07a11.68,11.68,0,0,1,1.57-5.85C288.94,327.63,299.61,325.79,310.33,326.23Z"/><path class="cls-5" d="M374.68,135a3,3,0,0,1,.8,2.62q-.08,13.49-.14,27H327.28Z"/><path class="cls-69" d="M238.4,155.7h-77c-1.09,0-2.19,0-3.29,0-1.46,0-1.86-.82-1.82-2.11,0-1.13.46-1.85,1.67-1.88s2.2,0,3.29,0H315.69c.41,0,.83,0,1.24,0,1.68.12,4-.55,3.92,2.25s-2.37,1.74-3.77,1.75c-15.66.07-31.31,0-47,0Z"/><path class="cls-70" d="M241.4,140.82q23.49,0,47,0c2.09,0,4.07-.37,4,3,0,3-1.76,2.82-3.76,2.81q-47.38,0-94.78,0c-1.93,0-3.81.35-3.82-2.75,0-2.81,1.34-3.05,3.56-3C209.53,140.85,225.47,140.82,241.4,140.82Z"/><path class="cls-6" d="M186,253.63c-4.49.16-10.19,1.87-13.14-.57s-.63-8.24-.91-12.56c-.11-1.77.08-3.56,0-5.34-.44-6.62.47-12.27,5.31-17.89,7.36-8.55,6.16-17.77-2.14-26.49a10.47,10.47,0,0,1-3.2-8.71,62,62,0,0,0,0-9c-.22-2.82,1-3.49,3.55-3.39,4.78.19,9.58.1,14.38.12a8.93,8.93,0,0,1,1.92,1.31c4.15,3.62,8.53,6.78,14.25,7.43,7.11.82,12.16-3.06,17.05-7.35.73-.69,1.76-.85,2.54-1.47q43.8,0,87.61.06c1.48,0,3.26-.86,4.48.84a11,11,0,0,1-9.39,5.41c-23.23-.13-46.44-.18-69.69.57,1.36,2.06,3.31,1.66,5.06,1.67q29.22,0,58.44,0c2.19,0,4.4-.22,6.53.49,1.4.73,1.44,2.1,0,2.12-8.51.1-14,6.67-21.26,9.48-15.05-.18-30.1,0-42.85-.09,11.42.22,25.14-.33,38.86.24,1.73,2.39-.46,2.86-1.81,3.74a5.86,5.86,0,0,1-1.43.35c-12.59-.48-25.19-.05-37.79-.24,11.5.25,23-.32,34.5.3,1.66,2.38-.54,2.82-1.86,3.7a5.65,5.65,0,0,1-1.4.36c-10.38-.46-20.77-.06-29-.2,5.72,0,13.6,0,21.49,0,1.49,0,3-.25,4.45.41,1.21,2.51-1,2.77-2.35,3.61-9.08.26-18.18-.07-25.82.11,6.48.26,14.42-.52,22.35.36.95,2.93-1.78,2.69-3.12,3.66-7.18.19-14.38,0-20.6.09,5.07.27,11.14-.52,17.17.4.83,2.73-1.68,2.64-3,3.56-4.64.43-9.3-.08-13.26.17,2.89.53,6.64-1,10.13.82.67,2.23,2.53,1.18,3.8,1.19,16.15.07,32.29,0,48.43.1,1.9,0,4.52-1,5.27,2.16-1.52,1.28-3.36,1-5.1,1-18.05,0-36.1,0-54.15.05-3.29,0-6.43-1.3-9-.88-1.29,0-1,.59-.82.48,1.41-.74,3-.25,4.47-.31.85,1.91,2.54,1.6,4.16,1.6,18.37,0,36.74,0,55.11,0,1.94,0,4.51-.88,5.37,2.14-1.51,1.31-3.35,1-5.09,1-21.58-.16-43.17.41-64.74-.28-.07,0-.17.12-.19.2a1.26,1.26,0,0,0,0,.39c.54,1.52,1.78.58,2.61.58q30.49.08,61,.05a13.25,13.25,0,0,1,4.9.41c.75.3,2.11.47,1.19,1.92-28.84.26-57.68,0-86.52.11-13.13,0-26.26,0-39.39.09-.54.16.07.9-.11.38-.07-.22,0-.3.2-.36a6.59,6.59,0,0,1,2-.08H306.15a8.4,8.4,0,0,1,2.45.18c.49,1.47-.64,1.59-1.55,1.74a24.52,24.52,0,0,1-4.11.12h-67.1a16,16,0,0,0-4.32.19,16.34,16.34,0,0,1,3.76-.19c22.92,0,45.83,0,68.74,0,1.65,0,4-1.07,4.74,1.7a7.41,7.41,0,0,1-3.24.28q-59.46,0-118.92,0c-1.1,0-2.41.58-3.9-1.22,1.21,1.8,2.35,1.25,3.24,1.25q59.46,0,118.91,0a18.4,18.4,0,0,1,4.51.18c.57,1.7-.9,1.74-1.8,2a15,15,0,0,1-4.49.24q-35.9,0-71.79,0c-3.45,0-6.81.06-10,1.57-11.48.26-23,0-33.72.12,26.49.39,53.7-1.28,80.93-.79,11.81.21,23.62,0,35.43.05,1.88,0,3.88-.37,5.54,1-.64,2.92-3,2.15-4.87,2.17-10.84.09-21.68,0-32.52,0-15.78,0-31.56,0-47.34,0-3.45,0-6.84.05-10,1.57-9.37.27-18.75,0-27.51.12,22.48.34,45.55-1.19,68.65-.81,16,.27,32.06,0,48.09.07,1.88,0,3.88-.37,5.53,1-.45,2.85-2.8,2.12-4.47,2.15-9.31.11-18.63.05-27.94.05-20.42,0-40.83,0-61.24,0a11.38,11.38,0,0,0-7,1.8c-7,.89-14.12-.14-20,.32,4.12.22,9.44-.43,14.74.3,1.59,2.35-.68,2.67-1.87,3.57a6.41,6.41,0,0,1-2,.45c-4.69-.61-9.44.27-14.08-.57,3.84,1.05,7.81-.4,11.59.82.91,2.11-.84,2.58-2.07,3.38a6.65,6.65,0,0,1-1.82.45c-2.68-.21-5.39-.05-8.07-.36,1.77.57,3.73-.34,5.45.71C191.25,253.06,187.67,252.31,186,253.63Z"/><path class="cls-9" d="M268.4,201.66l2.49-2.15c.64-1,1.66-.94,2.64-1,10,0,20,0,30,0-8.24,0-16.49,0-24.74,0-1.32,0-2.79.38-3.8-1l2.48-2.16c1.13-1.46,2.75-.93,4.18-1,7.32-.1,14.65.09,21.91-.1-6.1.16-12.14.05-18.17.05-1.32,0-2.8.38-3.81-1l2.48-2.21c1.15-1.4,2.76-.89,4.19-.91,5.85-.08,11.69,0,17.54-.06-4.62.07-9.24.05-13.86,0-1.3,0-2.77.41-3.74-1,4.15-2.62,8.34-5.17,12.41-7.91,1.53-1,3.1-.8,4.71-1,1.4-.14,3.06.72,4.12-.93a2.82,2.82,0,0,1,.17-4l8-4.87q.09,21.19.18,42.39c0,12.49,0,25,0,37.46,0,2.28-.25,3.4-3,3.39q-64.42-.19-128.86-.19c1.06-2.07,3.83-1.94,5-3.88,1.6-1.6,3.64-.93,5.48-.93q53.12-.07,106.24,0-51.08,0-102.13,0c-1.84,0-3.88.65-5.49-.92l2.47-2.25c1.63-1.52,3.66-.88,5.5-.89q50.61-.06,101.21,0-48.75,0-97.52,0c-1.71,0-3.6.58-5.07-.92l2.43-2.33c1.68-1.4,3.69-.81,5.55-.81q47.31-.06,94.63,0-45.67,0-91.36,0c-1.58,0-3.34.51-4.66-.93,1.93-2.11,4.4-2.36,7.1-2.35q44.77.08,89.55,0c1.48,0,3.33.9,4.46-1a15.11,15.11,0,0,0-4.5-.22q-42.82,0-85.65,0c-1.45,0-3,.54-4.37-.52,1.95-2.07,4.4-2.37,7.11-2.37q41.46.09,82.92,0c1.5,0,3.33.88,4.48-1a15.45,15.45,0,0,0-4.5-.23q-39.52,0-79.06,0c-1.44,0-3,.58-4.35-.54,2-2,4.39-2.38,7.11-2.37q38.16.1,76.31,0c1.5,0,3.32.86,4.49-1a.92.92,0,0,1-.59-.7c-1.45-1.21-3.17-.66-4.76-.66q-35-.06-70,0h-4.8c1.9-2.32,4.09-1.73,6-1.73,22.91,0,45.82,0,68.73,0,1.59,0,3.31.55,4.76-.66a.9.9,0,0,1,.59-.7c-1.17-1.83-3-.95-4.5-1q-32.32-.09-64.63,0h-4.11c.71-1.89,2.58-1.32,3.43-2.37,1.36-1,2.92-.5,4.38-.51q30.47-.06,60.93,0a15.53,15.53,0,0,0,4.51-.21c-1.15-1.85-3-1-4.47-1-20.63-.07-41.26-.05-62.07-.05.25-1.53,1.9-1.39,2.51-2.31,1.33-1.1,2.9-.53,4.34-.54,18.46,0,36.91,0,55.37,0,1.48,0,3,.33,4.45-.34-1.19-1.77-3-.94-4.5-.94-18.43-.06-36.86,0-56,0l2.89-2.28c1.34-1.42,3.09-.9,4.67-.9,15.5-.05,31,0,46.5,0-14.39,0-28.79,0-43.18,0-1.59,0-3.33.51-4.68-.87l3.29-2.29c1.32-1.43,3.07-.9,4.65-.9,13.27-.05,26.55,0,39.83,0-12.17,0-24.35,0-36.52,0-1.57,0-3.32.53-4.64-.92l3.26-2.26c1.34-1.42,3.1-.88,4.68-.88,11.12,0,22.25,0,33.37,0-10.16,0-20.32,0-30.48,0C271.18,202.59,269.56,203.07,268.4,201.66Z"/><path class="cls-5" d="M375.45,261.23q0,7.71-.07,15.42l-142.47.08H148.73l24-15.45c2.19,0,4.39-.11,6.58-.11Z"/><path class="cls-47" d="M122.46,211.33c0-12.63.07-25.26-.06-37.89,0-2.77.58-3.81,3.59-3.76,10.57.18,21.14.14,31.71,0,2.64,0,3.53.67,3.52,3.44q-.15,38.72,0,77.43c0,2.49-.6,3.31-3.2,3.28-10.84-.14-21.69-.16-32.53,0-2.76,0-3.09-1.08-3.07-3.39C122.51,237.42,122.46,224.38,122.46,211.33Z"/><path class="cls-7" d="M328.59,213.05c0-12.62.09-25.24-.07-37.86,0-3.06.83-4,3.94-4,10.42.18,20.85.14,31.27,0,2.63,0,3.58.68,3.57,3.45q-.14,38.48,0,77c0,3-1,3.71-3.8,3.67-10.15-.14-20.31-.16-30.45,0-3.35,0-4.59-.93-4.54-4.42C328.69,238.3,328.59,225.68,328.59,213.05Z"/><path class="cls-71" d="M225.54,169.68l-1.67,1.7a243.47,243.47,0,0,1-33-.15l-1.12-1.47Z"/><path class="cls-20" d="M63.13,240.53c.93-1.15,2.23-.78,3.41-.78q15.06,0,30.13,0c-1,1.43-2.49.75-3.74.76-9.64.07-19.27.06-28.9.07Z"/><path class="cls-72" d="M251.71,299.12l2.46,2.67a9.42,9.42,0,0,1-.74,6.18,7.44,7.44,0,0,1-6.53,2c-4.37-2.66-4.75-3.81-3.33-10.12C246.25,299.27,248.82,297.41,251.71,299.12Z"/><path class="cls-70" d="M425.43,259.24h42.51v.85H425.41Z"/><path class="cls-73" d="M434.79,252.9c.88-1.28,2.22-.8,3.38-.81q10-.06,20,0c1.29,0,3-.36,2.87,1.82-.14,1.83-1.7,1.43-2.85,1.44-7.09,0-14.18,0-21.27,0-.81,0-1.66.06-2.16-.81,2.67-1.61,5.6-.65,8.4-.78,3.67-.17,7.36,0,11,0-5.32,0-10.65,0-16,0C437.05,253.71,435.79,253.85,434.79,252.9Z"/><path class="cls-74" d="M434.79,252.9h25v1.65h-25C434.8,254,434.79,253.45,434.79,252.9Z"/><path class="cls-75" d="M447.15,300.79a3,3,0,0,1,0,.67c-2,.05-3.93.46-6.13-.32C443.21,300.37,445.19,300.8,447.15,300.79Z"/><path class="cls-62" d="M444.7,304.05l0,.56-4,.22,0-.78Z"/><path class="cls-76" d="M416.7,323l15.6.09-.77.7a53.8,53.8,0,0,1-14.06.05Z"/><path class="cls-77" d="M417.47,323.83l14.06-.05c0,.23,0,.45,0,.68-4.67,0-9.33.1-14,.15C417.51,324.35,417.49,324.09,417.47,323.83Z"/><path class="cls-59" d="M417.49,326.25l12.38.14a3.42,3.42,0,0,0,0,.46C425.76,326.83,421.56,328,417.49,326.25Z"/><path class="cls-78" d="M421.64,338.62l-4.17.05-.77-.85,5.71,0Z"/><path class="cls-4" d="M197.59,182.89c14.11.27,19.87,8.8,21.54,19.84.2,1.33,0,2.08-1.44,2.34-12.95,2.35-23.93-1.84-26.87-18-.44-2.44.33-3.57,2.85-3.67A32.66,32.66,0,0,0,197.59,182.89Z"/><path class="cls-64" d="M309.6,175.45c-.05,1.33-.11,2.67-.17,4q-35.21.09-70.42.22c-2,0-3-.47-3-2.74,0-2.66,1.74-2.29,3.36-2.29H293c4.26,0,8.52,0,12.77,0C307.05,174.67,308.51,174.21,309.6,175.45Z"/><path class="cls-4" d="M190.9,171.23c.84-1,2-.74,3-.74q13.26,0,26.54,0c1.18,0,2.49-.31,3.38.89C214,182.47,200.84,182.41,190.9,171.23Z"/><path class="cls-79" d="M208.22,239.58l96.32.13h5.12c-2,1.87-3.69,1.3-5.17,1.3q-47.14.06-94.27,0c-2.05,0-4.11.21-6.16.33H182.21v-1.8Z"/><path class="cls-80" d="M195,247.83l108.63.13a20.85,20.85,0,0,1,5.38.47c-1.37,1.5-3,1-4.55,1q-53.7,0-107.4,0c-2,0-4.11.16-6.16.24-3-.77-6.21.93-9.05-1,3.74-1,7.61.19,11.35-.65Z"/><path class="cls-81" d="M201.63,243.71q51.47.06,102.94.15c1.45,0,3-.39,4.6.47-1.4,1.57-3.14.93-4.61.93q-50.44.06-100.89.05c-2,0-4.11.17-6.16.27-3.93-.06-7.87-.06-11.8-.2-1.26,0-2.75.65-3.76-.75,5.94-1,12,.2,17.9-.65Z"/><path class="cls-82" d="M255.19,210q24.85.09,49.71.21c1.42,0,3-.52,4.26,1.62h-72.6l0-1.83Z"/><path class="cls-83" d="M261.8,205.8h47.4v1.88H236.53l0-1.3C244.9,205.42,253.4,206.51,261.8,205.8Z"/><path class="cls-84" d="M268.4,201.66h40.82c0,.63,0,1.25,0,1.88H236.52c0-.63,0-1.25,0-1.88Z"/><path class="cls-85" d="M288.19,189.26h21.05c0,.46,0,.93,0,1.39-8.36,1-16.82,0-25.2.55h-47.5v-1.94Z"/><path class="cls-4" d="M309.32,223.44c-.2.23-.4.46-.59.7q-38.33,0-76.64-.07c-15.94,0-31.87,0-47.8,0a19.73,19.73,0,0,1-2.16-.24c1.05-1.13,2.18-.71,3.17-.71q60.57,0,121.15.1C307.41,223.26,308.36,223.38,309.32,223.44Z"/><path class="cls-4" d="M308.73,227.27l.59.7c-1.64.06-3.29.18-4.93.18L187,228.27h-5.47c2.3-1.41,3.85-1,5.28-1q58.52,0,117,.08C305.43,227.39,307.08,227.31,308.73,227.27Z"/><path class="cls-4" d="M221.41,231.3q41.61.06,83.2.15c1.57,0,3.3-.66,4.71.66-.95.06-1.91.19-2.86.19l-121.3.13a3.35,3.35,0,0,1-2.78-1.13Z"/><path class="cls-4" d="M214.81,235.45q44.9.06,89.8.15c1.57,0,3.3-.64,4.72.63-1.09.08-2.18.22-3.27.23q-60.24.07-120.48.13a5.81,5.81,0,0,1-4.29-1.14Z"/><path class="cls-86" d="M308.68,193.74c-.29,1.39-.29,1.44-2,1.44-8.77,0-17.55,0-26.32,0-1,0-1.91.1-2.87.16H236.54c0-.55,0-1.1,0-1.65h44.23C290.06,194.17,299.37,194.14,308.68,193.74Z"/><path class="cls-87" d="M273.3,199.2l-2.41.31H236.52c0-.56,0-1.12,0-1.68h37.58C274.32,198.57,273.89,198.93,273.3,199.2Z"/><path class="cls-4" d="M309.46,215.06c-1.14,1.56-2.78.76-4.16.77q-30,.13-60,.15h-8.85c.78-1.47,1.65-1.15,2.33-1.15q34.12,0,68.24,0A22.75,22.75,0,0,1,309.46,215.06Z"/><path class="cls-4" d="M309.33,219.31c-1.27,1.26-2.87.65-4.31.65q-32.75.1-65.51.11c-.84-.39-1.91.3-3-1h7.38q30.27,0,60.56,0C306,219.11,307.68,219.24,309.33,219.31Z"/><path class="cls-88" d="M273.3,199.2l.78-1.37.91-.31h34.24c0,.56,0,1.12,0,1.68Z"/><path class="cls-71" d="M308.68,193.74c-6.32,1.45-12.73.42-19.09.57-2.93.07-6,.82-8.83-.6l.82-.3Z"/><path class="cls-89" d="M199.85,244c-5.92,1.46-11.94.28-17.9.65C187.86,243,193.88,244.13,199.85,244Z"/><path class="cls-86" d="M193.24,248.1c-3.71,1.41-7.57.37-11.35.65C185.59,247.09,189.46,248.26,193.24,248.1Z"/></g></g></svg>