<svg xmlns="http://www.w3.org/2000/svg" xmlns:xlink="http://www.w3.org/1999/xlink" width="544" height="303" viewBox="0 0 544 303">
  <defs>
    <filter id="Rectangle_232" x="32" y="40" width="349" height="254" filterUnits="userSpaceOnUse">
      <feOffset dy="3" input="SourceAlpha"/>
      <feGaussianBlur stdDeviation="3" result="blur"/>
      <feFlood flood-opacity="0.161"/>
      <feComposite operator="in" in2="blur"/>
      <feComposite in="SourceGraphic"/>
    </filter>
    <filter id="Rectangle_233" x="398" y="40" width="146" height="201" filterUnits="userSpaceOnUse">
      <feOffset dy="3" input="SourceAlpha"/>
      <feGaussianBlur stdDeviation="3" result="blur-2"/>
      <feFlood flood-opacity="0.161"/>
      <feComposite operator="in" in2="blur-2"/>
      <feComposite in="SourceGraphic"/>
    </filter>
    <filter id="Rectangle_241" x="292" y="227" width="160" height="76" filterUnits="userSpaceOnUse">
      <feOffset dy="3" input="SourceAlpha"/>
      <feGaussianBlur stdDeviation="3" result="blur-3"/>
      <feFlood flood-opacity="0.161"/>
      <feComposite operator="in" in2="blur-3"/>
      <feComposite in="SourceGraphic"/>
    </filter>
    <filter id="Rectangle_250" x="0" y="111" width="160" height="76" filterUnits="userSpaceOnUse">
      <feOffset dy="3" input="SourceAlpha"/>
      <feGaussianBlur stdDeviation="3" result="blur-4"/>
      <feFlood flood-opacity="0.161"/>
      <feComposite operator="in" in2="blur-4"/>
      <feComposite in="SourceGraphic"/>
    </filter>
    <filter id="Rectangle_242" x="313" y="0" width="160" height="76" filterUnits="userSpaceOnUse">
      <feOffset dy="3" input="SourceAlpha"/>
      <feGaussianBlur stdDeviation="3" result="blur-5"/>
      <feFlood flood-opacity="0.161"/>
      <feComposite operator="in" in2="blur-5"/>
      <feComposite in="SourceGraphic"/>
    </filter>
  </defs>
  <g id="Group_677" data-name="Group 677" transform="translate(-2730 -1479)">
    <g id="Group_676" data-name="Group 676">
      <g transform="matrix(1, 0, 0, 1, 2730, 1479)" filter="url(#Rectangle_232)">
        <rect id="Rectangle_232-2" data-name="Rectangle 232" width="331" height="236" rx="14" transform="translate(41 46)" fill="#fff" opacity="0.8"/>
      </g>
      <g transform="matrix(1, 0, 0, 1, 2730, 1479)" filter="url(#Rectangle_233)">
        <rect id="Rectangle_233-2" data-name="Rectangle 233" width="128" height="183" rx="10" transform="translate(407 46)" fill="#fff" opacity="0.8"/>
      </g>
      <rect id="Rectangle_234" data-name="Rectangle 234" width="278" height="73" rx="10" transform="translate(2796 1566)" fill="#eecab3" opacity="0.25"/>
      <rect id="Rectangle_243" data-name="Rectangle 243" width="98" height="26" rx="4" transform="translate(3149 1558)" fill="#eecab3" opacity="0.25"/>
      <rect id="Rectangle_235" data-name="Rectangle 235" width="81" height="30" rx="10" transform="translate(2796 1656)" fill="#fed7bf"/>
      <rect id="Rectangle_247" data-name="Rectangle 247" width="55" height="21" rx="4" transform="translate(3149 1596)" fill="#fed7bf"/>
      <path id="Rectangle_236" data-name="Rectangle 236" d="M10,0H262a10,10,0,0,1,10,10V49a0,0,0,0,1,0,0H0a0,0,0,0,1,0,0V10A10,10,0,0,1,10,0Z" transform="translate(2796 1712)" fill="#eecab3" opacity="0.25"/>
      <path id="Rectangle_248" data-name="Rectangle 248" d="M4,0H111a4,4,0,0,1,4,4V61a0,0,0,0,1,0,0H0a0,0,0,0,1,0,0V4A4,4,0,0,1,4,0Z" transform="translate(3144 1647)" fill="#eecab3" opacity="0.25"/>
      <rect id="Rectangle_237" data-name="Rectangle 237" width="69" height="48" rx="10" transform="translate(2812 1579)" fill="#fc7b2c" opacity="0.3"/>
      <rect id="Rectangle_244" data-name="Rectangle 244" width="24" height="17" rx="4" transform="translate(3155 1563)" fill="#fc7b2c" opacity="0.3"/>
      <rect id="Rectangle_238" data-name="Rectangle 238" width="69" height="48" rx="10" transform="translate(2901 1579)" fill="#fc7b2c" opacity="0.3"/>
      <rect id="Rectangle_245" data-name="Rectangle 245" width="24" height="17" rx="4" transform="translate(3186 1563)" fill="#fc7b2c" opacity="0.3"/>
      <rect id="Rectangle_239" data-name="Rectangle 239" width="69" height="48" rx="10" transform="translate(2990 1579)" fill="#fc7b2c" opacity="0.3"/>
      <rect id="Rectangle_246" data-name="Rectangle 246" width="25" height="17" rx="4" transform="translate(3217 1563)" fill="#fc7b2c" opacity="0.3"/>
      <path id="Rectangle_240" data-name="Rectangle 240" d="M10,0H237a10,10,0,0,1,10,10V25a0,0,0,0,1,0,0H0a0,0,0,0,1,0,0V10A10,10,0,0,1,10,0Z" transform="translate(2809 1736)" fill="#fed7bf"/>
      <path id="Rectangle_249" data-name="Rectangle 249" d="M4,0H86a4,4,0,0,1,4,4V49a0,0,0,0,1,0,0H0a0,0,0,0,1,0,0V4A4,4,0,0,1,4,0Z" transform="translate(3156 1659)" fill="#fed7bf"/>
      <text id="Button" transform="translate(2815 1663)" fill="#fff" font-size="12" font-family="Poppins-Bold, Poppins" font-weight="700" opacity="0.8"><tspan x="0" y="13">Button</tspan></text>
      <text id="Button-2" data-name="Button" transform="translate(3161 1610)" fill="#fff" font-size="9" font-family="Poppins-Bold, Poppins" font-weight="700" opacity="0.8"><tspan x="0" y="0">Button</tspan></text>
      <text id="wireframing" transform="translate(2796 1538)" fill="#fc7b2c" font-size="15" font-family="Poppins-Bold, Poppins" font-weight="700" opacity="0.6"><tspan x="0" y="16">wireframing</tspan></text>
      <text id="wireframing-2" data-name="wireframing" transform="translate(3149 1538)" fill="#fc7b2c" font-size="11" font-family="Poppins-Bold, Poppins" font-weight="700" opacity="0.6"><tspan x="0" y="12">wireframing</tspan></text>
      <g transform="matrix(1, 0, 0, 1, 2730, 1479)" filter="url(#Rectangle_241)">
        <rect id="Rectangle_241-2" data-name="Rectangle 241" width="142" height="58" rx="10" transform="translate(301 233)" fill="#f9f9f9"/>
      </g>
      <g transform="matrix(1, 0, 0, 1, 2730, 1479)" filter="url(#Rectangle_250)">
        <rect id="Rectangle_250-2" data-name="Rectangle 250" width="142" height="58" rx="10" transform="translate(9 117)" fill="#f9f9f9"/>
      </g>
      <g transform="matrix(1, 0, 0, 1, 2730, 1479)" filter="url(#Rectangle_242)">
        <rect id="Rectangle_242-2" data-name="Rectangle 242" width="142" height="58" rx="10" transform="translate(322 6)" fill="#f9f9f9"/>
      </g>
      <text id="Design" transform="translate(3118 1502)" font-size="13" font-family="Poppins-Bold, Poppins" font-weight="700"><tspan x="0" y="14">Design</tspan></text>
      <text id="Developer" transform="translate(3086 1730)" font-size="13" font-family="Poppins-Bold, Poppins" font-weight="700"><tspan x="0" y="14">Developer</tspan></text>
      <text id="UI_UX" data-name="UI/UX" transform="translate(2806 1614)" font-size="13" font-family="Poppins-Bold, Poppins" font-weight="700"><tspan x="0" y="14">UI/UX</tspan></text>
      <g id="dashboard-5479" transform="translate(2762.828 1610)">
        <path id="Path_1464" data-name="Path 1464" d="M11.607,17.668H1.751A1.753,1.753,0,0,1,0,15.916V1.751A1.753,1.753,0,0,1,1.751,0h9.856a1.753,1.753,0,0,1,1.751,1.751V15.917A1.753,1.753,0,0,1,11.607,17.668ZM1.751,1.289a.463.463,0,0,0-.462.462V15.917a.463.463,0,0,0,.462.462h9.856a.463.463,0,0,0,.462-.462V1.751a.463.463,0,0,0-.462-.462Z" fill="#fc7b2c"/>
        <path id="Path_1465" data-name="Path 1465" d="M11.607,187.581H1.751A1.753,1.753,0,0,1,0,185.83v-4.958a1.753,1.753,0,0,1,1.751-1.751h9.856a1.753,1.753,0,0,1,1.751,1.751v4.958A1.753,1.753,0,0,1,11.607,187.581ZM1.751,180.41a.463.463,0,0,0-.462.462v4.958a.463.463,0,0,0,.462.462h9.856a.463.463,0,0,0,.462-.462v-4.958a.463.463,0,0,0-.462-.462Z" transform="translate(0 -158.581)" fill="#eecab3"/>
        <path id="Path_1466" data-name="Path 1466" d="M148.013,116.5h-9.856a1.753,1.753,0,0,1-1.751-1.751V100.579a1.753,1.753,0,0,1,1.751-1.751h9.856a1.753,1.753,0,0,1,1.751,1.751v14.166A1.753,1.753,0,0,1,148.013,116.5Zm-9.856-16.379a.463.463,0,0,0-.462.462v14.166a.463.463,0,0,0,.462.462h9.856a.463.463,0,0,0,.462-.462V100.579a.463.463,0,0,0-.462-.462h-9.856Z" transform="translate(-120.764 -87.495)" fill="#fc7b2c"/>
        <path id="Path_1467" data-name="Path 1467" d="M148.013,8.46h-9.856a1.753,1.753,0,0,1-1.751-1.751V1.751A1.753,1.753,0,0,1,138.157,0h9.856a1.753,1.753,0,0,1,1.751,1.751V6.709A1.753,1.753,0,0,1,148.013,8.46Zm-9.856-7.171a.463.463,0,0,0-.462.462V6.709a.463.463,0,0,0,.462.462h9.856a.463.463,0,0,0,.462-.462V1.751a.463.463,0,0,0-.463-.462Z" transform="translate(-120.764)" fill="#eecab3"/>
      </g>
      <g id="Group_675" data-name="Group 675" transform="translate(2 -1.39)">
        <path id="Path_1479" data-name="Path 1479" d="M80.6,145.654a.782.782,0,0,1-.47-.156L73.3,140.4a.787.787,0,0,1,0-1.261l6.823-5.093a.786.786,0,0,1,.941,1.261l-5.979,4.462,5.979,4.463a.787.787,0,0,1-.471,1.418Z" transform="translate(2972.587 1601.562)"/>
        <path id="Path_1477" data-name="Path 1477" d="M150.7,145.657a.786.786,0,0,1-.472-1.416l5.98-4.463-5.979-4.462a.786.786,0,0,1,.94-1.261l6.824,5.093a.788.788,0,0,1,0,1.261l-6.824,5.094A.8.8,0,0,1,150.7,145.657Z" transform="translate(2917.191 1601.559)" fill="#fc7b2c"/>
        <path id="Path_1478" data-name="Path 1478" d="M112.825,140.83a.786.786,0,0,1-.731-1.074l6.415-16.318a.786.786,0,1,1,1.464.575l-6.415,16.319A.787.787,0,0,1,112.825,140.83Z" transform="translate(2944.465 1609.452)"/>
      </g>
      <g id="Group_674" data-name="Group 674" transform="translate(98 13)">
        <g id="Group_673" data-name="Group 673">
          <g id="Group_672" data-name="Group 672">
            <path id="Path_1475" data-name="Path 1475" d="M31.645,15.691H29.851a13.773,13.773,0,0,0-8.97-12.62h6.154a2.5,2.5,0,1,0,0-.711H18.5V.406a.355.355,0,0,0-.356-.356H13.858A.356.356,0,0,0,13.5.406V2.361H4.966a2.5,2.5,0,1,0,0,.711H11.12A13.773,13.773,0,0,0,2.15,15.691H.356A.356.356,0,0,0,0,16.046v4.282a.355.355,0,0,0,.356.356H4.639a.355.355,0,0,0,.356-.356V16.046a.356.356,0,0,0-.356-.356H2.861A13.069,13.069,0,0,1,13.5,3.142V4.688a.356.356,0,0,0,.356.356h4.283a.355.355,0,0,0,.356-.356V3.142A13.069,13.069,0,0,1,29.139,15.691H27.361a.355.355,0,0,0-.356.356v4.282a.355.355,0,0,0,.356.356h4.284A.355.355,0,0,0,32,20.329V16.046A.355.355,0,0,0,31.645,15.691Z" transform="translate(2974 1484.949)" fill="#fc7b2c"/>
            <path id="Path_1476" data-name="Path 1476" d="M83.49,77.184l-6.7-13.223V73.99H75.723V63.961l-6.7,13.223a.356.356,0,0,0,.023.36l3.4,5.017v4.957a.355.355,0,0,0,.356.356h6.916a.355.355,0,0,0,.356-.356V82.562l3.4-5.017A.356.356,0,0,0,83.49,77.184Z" transform="translate(2913.743 1429.126)" fill="#eecab3"/>
          </g>
        </g>
      </g>
    </g>
  </g>
</svg>
