<svg xmlns="http://www.w3.org/2000/svg" viewBox="0 0 74.75 131.92"><defs><style>.cls-1{fill:#fff;}.cls-2{fill:#fc7b2c;}</style></defs><g id="Layer_2" data-name="Layer 2"><g id="Layer_1-2" data-name="Layer 1"><circle class="cls-1" cx="5.85" cy="5.85" r="5.85"/><circle class="cls-1" cx="26.87" cy="5.85" r="5.85"/><circle class="cls-2" cx="47.89" cy="5.85" r="5.85"/><circle class="cls-2" cx="68.91" cy="5.85" r="5.85"/><circle class="cls-1" cx="5.85" cy="25.66" r="5.85"/><circle class="cls-1" cx="26.87" cy="25.96" r="5.85"/><circle class="cls-2" cx="47.89" cy="26.25" r="5.85"/><circle class="cls-2" cx="68.91" cy="25.37" r="5.85"/><circle class="cls-1" cx="5.85" cy="45.63" r="5.85"/><circle class="cls-1" cx="26.87" cy="45.92" r="5.85"/><circle class="cls-2" cx="47.89" cy="46.21" r="5.85"/><circle class="cls-2" cx="68.91" cy="45.34" r="5.85"/><circle class="cls-2" cx="5.85" cy="65.59" r="5.85"/><circle class="cls-2" cx="26.87" cy="65.89" r="5.85"/><circle class="cls-2" cx="47.89" cy="66.18" r="5.85"/><circle class="cls-2" cx="68.91" cy="65.3" r="5.85"/><circle class="cls-2" cx="5.85" cy="85.56" r="5.85"/><circle class="cls-2" cx="26.87" cy="85.85" r="5.85"/><circle class="cls-1" cx="47.89" cy="86.14" r="5.85"/><circle class="cls-1" cx="68.91" cy="85.27" r="5.85"/><circle class="cls-2" cx="5.85" cy="105.52" r="5.85"/><circle class="cls-2" cx="26.87" cy="105.82" r="5.85"/><circle class="cls-1" cx="47.89" cy="106.11" r="5.85"/><circle class="cls-1" cx="68.91" cy="105.23" r="5.85"/><circle class="cls-2" cx="5.85" cy="125.49" r="5.85"/><circle class="cls-2" cx="26.87" cy="125.78" r="5.85"/><circle class="cls-1" cx="47.89" cy="126.07" r="5.85"/><circle class="cls-1" cx="68.91" cy="125.2" r="5.85"/></g></g></svg>